<svg xmlns="http://www.w3.org/2000/svg" viewBox="0 0 404.88 731.91">
  <defs>
    <style>
      .cls-1 {
        fill: #eb9092;
      }

      .cls-2 {
        fill: #d6666b;
      }

      .cls-3 {
        fill: #728ec2;
      }

      .cls-4 {
        fill: #efb7b6;
      }

      .cls-5 {
        fill: #a24f52;
      }

      .cls-6 {
        fill: #713636;
      }

      .cls-7 {
        fill: #914649;
      }

      .cls-8 {
        fill: #3e2825;
      }

      .cls-9 {
        fill: #261611;
      }

      .cls-10 {
        fill: #ecdfcf;
      }

      .cls-11 {
        fill: #dac9bd;
      }

      .cls-12 {
        fill: #f1f1eb;
      }

      .cls-13 {
        fill: #b8aaa1;
      }

      .cls-14 {
        fill: #fcfcf3;
      }
    </style>
  </defs>
  <title>Asset 6</title>
  <g id="Layer_2" data-name="Layer 2">
    <g id="Capa_1" data-name="Capa 1">
      <polygon class="cls-1" points="228.41 731.91 0 577.72 0 97.75 228.41 251.73 228.41 731.91"/>
      <polyline class="cls-2" points="228.41 731.91 404.88 658.03 228.41 731.91 228.41 251.94 404.88 178.07 404.88 658.03"/>
      <polygon class="cls-3" points="0 97.75 176.7 23.07 404.88 178.07 228.41 251.94 0 97.75"/>
      <polygon class="cls-1" points="228.41 251.94 0 97.75 0 74.7 228.41 228.66 228.41 251.94"/>
      <polyline class="cls-2" points="228.41 251.94 404.88 178.07 228.41 251.94 228.41 228.89 404.88 155.02 404.88 178.07"/>
      <polygon class="cls-4" points="0 74.7 176.7 0 404.88 155.02 228.41 228.89 0 74.7"/>
      <polygon class="cls-5" points="21.57 81.06 175.86 15.79 383.69 156.75 229.06 221.39 21.57 81.06"/>
      <polygon class="cls-6" points="175.88 7.8 175.88 15.79 383.57 156.65 391.59 153.45 175.88 7.8"/>
      <polygon class="cls-7" points="175.88 7.49 175.88 15.49 21.57 80.76 13.28 75.39 175.88 7.49"/>
      <polygon class="cls-8" points="67.56 179.29 29.55 153.57 29.55 214.94 67.56 240.67 67.56 179.29"/>
      <polygon class="cls-9" points="35.73 157.76 29.55 153.57 29.55 214.94 35.73 219.13 35.73 157.76"/>
      <polygon class="cls-8" points="126.18 216.35 88.18 190.64 88.18 252.01 126.18 277.72 126.18 216.35"/>
      <polygon class="cls-9" points="94.36 194.81 88.18 190.64 88.18 252.01 94.36 256.19 94.36 194.81"/>
      <polygon class="cls-8" points="186.83 254.59 148.83 228.89 148.83 290.26 186.83 315.97 186.83 254.59"/>
      <polygon class="cls-9" points="155.01 233.06 148.83 228.89 148.83 290.26 155.01 294.44 155.01 233.06"/>
      <polygon class="cls-8" points="383.69 262.7 383.69 199.66 255.48 252.92 255.48 315.97 383.69 262.7"/>
      <polygon class="cls-9" points="372.87 204.15 372.87 267.2 383.69 262.7 383.69 199.66 372.87 204.15"/>
      <polygon class="cls-8" points="67.56 266.38 29.55 240.67 29.55 302.03 67.56 327.75 67.56 266.38"/>
      <polygon class="cls-9" points="35.73 244.84 29.55 240.67 29.55 302.03 35.73 306.21 35.73 244.84"/>
      <polygon class="cls-8" points="126.18 303.44 88.18 277.72 88.18 339.1 126.18 364.82 126.18 303.44"/>
      <polygon class="cls-9" points="94.36 281.91 88.18 277.72 88.18 339.1 94.36 343.28 94.36 281.91"/>
      <polygon class="cls-8" points="186.83 341.69 148.83 315.97 148.83 377.34 186.83 403.06 186.83 341.69"/>
      <polygon class="cls-9" points="155.01 320.16 148.83 315.97 148.83 377.34 155.01 381.53 155.01 320.16"/>
      <polygon class="cls-8" points="383.69 349.8 383.69 286.74 255.48 340 255.48 403.06 383.69 349.8"/>
      <polygon class="cls-9" points="372.87 291.24 372.87 354.3 383.69 349.8 383.69 286.74 372.87 291.24"/>
      <polygon class="cls-8" points="67.56 353.47 29.55 327.75 29.55 389.13 67.56 414.84 67.56 353.47"/>
      <polygon class="cls-9" points="35.73 331.94 29.55 327.75 29.55 389.13 35.73 393.31 35.73 331.94"/>
      <polygon class="cls-8" points="126.18 390.53 88.18 364.82 88.18 426.19 126.18 451.9 126.18 390.53"/>
      <polygon class="cls-9" points="94.36 369 88.18 364.82 88.18 426.19 94.36 430.37 94.36 369"/>
      <polygon class="cls-8" points="186.83 428.77 148.83 403.06 148.83 464.44 186.83 490.15 186.83 428.77"/>
      <polygon class="cls-9" points="155.01 407.24 148.83 403.06 148.83 464.44 155.01 468.61 155.01 407.24"/>
      <polygon class="cls-8" points="383.69 436.88 383.69 373.84 255.48 427.1 255.48 490.15 383.69 436.88"/>
      <polygon class="cls-9" points="372.87 378.33 372.87 441.38 383.69 436.88 383.69 373.84 372.87 378.33"/>
      <polygon class="cls-8" points="67.56 440.56 29.55 414.84 29.55 476.22 67.56 501.93 67.56 440.56"/>
      <polygon class="cls-9" points="35.73 419.02 29.55 414.84 29.55 476.22 35.73 480.39 35.73 419.02"/>
      <polygon class="cls-8" points="126.18 477.62 88.18 451.9 88.18 513.28 126.18 539 126.18 477.62"/>
      <polygon class="cls-9" points="94.36 456.09 88.18 451.9 88.18 513.28 94.36 517.46 94.36 456.09"/>
      <polygon class="cls-8" points="186.83 515.87 148.83 490.15 148.83 551.52 186.83 577.24 186.83 515.87"/>
      <polygon class="cls-9" points="155.01 494.34 148.83 490.15 148.83 551.52 155.01 555.71 155.01 494.34"/>
      <polygon class="cls-8" points="383.69 523.98 383.69 460.93 255.48 514.18 255.48 577.24 383.69 523.98"/>
      <polygon class="cls-9" points="372.87 465.42 372.87 528.48 383.69 523.98 383.69 460.93 372.87 465.42"/>
      <polygon class="cls-8" points="67.56 527.65 29.55 501.93 29.55 563.3 67.56 589.02 67.56 527.65"/>
      <polygon class="cls-9" points="35.73 506.11 29.55 501.93 29.55 563.3 35.73 567.49 35.73 506.11"/>
      <polygon class="cls-8" points="126.18 564.72 88.18 539 88.18 600.37 126.18 626.08 126.18 564.72"/>
      <polygon class="cls-9" points="94.36 543.17 88.18 539 88.18 600.37 94.36 604.55 94.36 543.17"/>
      <polygon class="cls-8" points="186.83 602.95 148.83 577.24 148.83 638.62 186.83 664.33 186.83 602.95"/>
      <polygon class="cls-9" points="155.01 581.42 148.83 577.24 148.83 638.62 155.01 642.79 155.01 581.42"/>
      <polygon class="cls-8" points="383.69 611.06 383.69 548.01 255.48 601.28 255.48 664.33 383.69 611.06"/>
      <polygon class="cls-9" points="372.87 552.51 372.87 615.56 383.69 611.06 383.69 548.01 372.87 552.51"/>
      <polygon class="cls-10" points="217 194.81 82.01 103.5 82.01 72.96 217 164 217 194.81"/>
      <polyline class="cls-11" points="217 194.81 319.74 151.8 217 194.81 217 164.13 319.74 121.13 319.74 151.8"/>
      <polygon class="cls-12" points="82.16 73.11 185.03 29.84 319.89 121.28 217.15 164.27 82.16 73.11"/>
      <polygon class="cls-13" points="194.78 109.08 174.42 95.31 174.42 88.38 194.78 102.15 194.78 109.08"/>
      <polyline class="cls-11" points="194.78 109.08 224.48 96.64 194.78 109.08 194.78 102.19 224.48 89.76 224.48 96.64"/>
      <polygon class="cls-14" points="174.46 88.38 204.16 75.94 224.48 89.76 194.78 102.19 174.46 88.38"/>
      <polygon class="cls-13" points="235.89 136.64 215.53 122.86 215.53 115.93 235.89 129.71 235.89 136.64"/>
      <polyline class="cls-11" points="235.89 136.64 265.6 124.2 235.89 136.64 235.89 129.75 265.6 117.31 265.6 124.2"/>
      <polygon class="cls-14" points="215.57 115.93 245.27 103.5 265.6 117.31 235.89 129.75 224.15 121.77 215.57 115.93"/>
      <polygon class="cls-13" points="156.11 82.83 135.75 69.05 135.75 62.13 156.11 75.91 156.11 82.83"/>
      <polyline class="cls-11" points="156.11 82.83 185.81 70.39 156.11 82.83 156.11 75.94 185.81 63.5 185.81 70.39"/>
      <polygon class="cls-14" points="135.78 62.13 165.5 49.7 185.81 63.5 156.11 75.94 135.78 62.13"/>
    </g>
  </g>
</svg>
