<svg xmlns="http://www.w3.org/2000/svg" viewBox="0 0 408.6 664">
  <defs>
    <style>
      .cls-1 {
        fill: #ecdfcf;
      }

      .cls-2 {
        fill: #dac9bd;
      }

      .cls-3 {
        fill: #f1f1eb;
      }

      .cls-4 {
        fill: #b8aaa1;
      }

      .cls-5 {
        fill: #fcfcf3;
      }

      .cls-6 {
        fill: #95807e;
      }
    </style>
  </defs>
  <title>Asset 3</title>
  <g id="Layer_2" data-name="Layer 2">
    <g id="Capa_1" data-name="Capa 1">
      <polygon class="cls-1" points="231.87 664 0 507.18 0 74.07 231.87 230.44 231.87 664"/>
      <polyline class="cls-2" points="231.87 664 408.34 590.13 231.87 664 231.87 230.66 408.34 156.79 408.34 590.13"/>
      <polygon class="cls-3" points="0.25 74.32 176.95 0 408.6 157.04 232.13 230.91 0.25 74.32"/>
      <polygon class="cls-4" points="193.69 136.1 158.72 112.43 158.72 100.54 193.69 124.2 193.69 136.1"/>
      <polyline class="cls-2" points="193.69 136.1 244.71 114.74 193.69 136.1 193.69 124.27 244.71 102.91 244.71 114.74"/>
      <polygon class="cls-5" points="158.78 100.54 209.81 79.18 244.71 102.91 193.69 124.27 158.78 100.54"/>
      <polygon class="cls-4" points="264.31 183.44 229.33 159.77 229.33 147.87 264.31 171.53 264.31 183.44"/>
      <polyline class="cls-2" points="264.31 183.44 315.34 162.07 264.31 183.44 264.31 171.61 315.34 150.24 315.34 162.07"/>
      <polygon class="cls-5" points="229.4 147.87 280.43 126.51 315.34 150.24 264.31 171.61 229.4 147.87"/>
      <polygon class="cls-4" points="127.27 91.01 92.3 67.34 92.3 55.45 127.27 79.11 127.27 91.01"/>
      <polyline class="cls-2" points="127.27 91.01 178.29 69.65 127.27 91.01 127.27 79.18 178.29 57.81 178.29 69.65"/>
      <polygon class="cls-5" points="92.36 55.45 143.39 34.09 178.29 57.81 127.27 79.18 92.36 55.45"/>
      <polygon class="cls-4" points="210.29 355.85 21.59 228.47 21.59 143.02 210.29 270.22 210.29 355.85"/>
      <polygon class="cls-6" points="29.68 224.47 29.68 148.47 21.59 143.02 21.59 228.47 210.29 355.85 210.29 346.39 29.68 224.47"/>
      <polygon class="cls-4" points="210.29 475.45 21.59 348.07 21.59 262.63 210.29 389.82 210.29 475.45"/>
      <polygon class="cls-6" points="29.68 344.07 29.68 268.07 21.59 262.63 21.59 348.07 210.29 475.45 210.29 465.99 29.68 344.07"/>
      <polygon class="cls-4" points="210.29 595.05 21.59 467.68 21.59 382.23 210.29 509.42 210.29 595.05"/>
      <polygon class="cls-6" points="29.68 463.67 29.68 387.68 21.59 382.23 21.59 467.68 210.29 595.05 210.29 585.59 29.68 463.67"/>
      <polygon class="cls-4" points="291.1 253.48 272.37 261.26 272.37 599.1 291.1 591.31 291.1 253.48"/>
      <polygon class="cls-4" points="291.1 253.48 272.37 261.26 272.37 599.1 291.1 591.31 291.1 253.48"/>
      <polygon class="cls-4" points="335.81 235.12 317.07 242.91 317.07 580.74 335.81 572.97 335.81 235.12"/>
      <polygon class="cls-4" points="377.93 217.44 359.19 225.22 359.19 563.05 377.93 555.27 377.93 217.44"/>
      <polygon class="cls-6" points="297.32 250.92 291.1 253.5 291.1 591.35 297.32 588.76 297.32 250.92"/>
      <polygon class="cls-6" points="342.04 232.53 335.81 235.11 335.81 572.96 342.04 570.36 342.04 232.53"/>
      <polygon class="cls-6" points="384.15 214.94 377.93 217.53 377.93 555.37 384.15 552.78 384.15 214.94"/>
    </g>
  </g>
</svg>
