<svg xmlns="http://www.w3.org/2000/svg" viewBox="0 0 404.88 795.89">
  <defs>
    <style>
      .cls-1 {
        fill: #cddae9;
      }

      .cls-2 {
        fill: #9caed3;
      }

      .cls-3 {
        fill: #728ec2;
      }

      .cls-4 {
        fill: #6077a2;
      }

      .cls-5 {
        fill: #4f6286;
      }

      .cls-6 {
        fill: #596f96;
      }

      .cls-7 {
        fill: #fff;
      }

      .cls-8 {
        fill: #17223a;
      }

      .cls-9 {
        fill: #b6c0dc;
      }

      .cls-10 {
        fill: #8798c7;
      }

      .cls-11 {
        fill: #6ab4dd;
      }

      .cls-12 {
        fill: #000015;
      }
    </style>
  </defs>
  <title>Asset 2</title>
  <g id="Layer_2" data-name="Layer 2">
    <g id="Capa_1" data-name="Capa 1">
      <polygon class="cls-1" points="228.41 795.89 0 641.7 0 97.75 228.41 251.72 228.41 795.89"/>
      <polyline class="cls-2" points="228.41 795.89 404.88 722.02 228.41 795.89 228.41 251.94 404.88 178.07 404.88 722.02"/>
      <polygon class="cls-3" points="0 97.75 176.69 23.07 404.88 178.07 228.41 251.94 0 97.75"/>
      <polygon class="cls-1" points="228.41 251.94 0 97.75 0 74.69 228.41 228.66 228.41 251.94"/>
      <polyline class="cls-2" points="228.41 251.94 404.88 178.07 228.41 251.94 228.41 228.88 404.88 155 404.88 178.07"/>
      <polygon class="cls-3" points="0 74.69 176.69 0 404.88 155 228.41 228.88 0 74.69"/>
      <polygon class="cls-4" points="21.76 80.9 176.05 15.64 383.88 156.6 229.25 221.23 21.76 80.9"/>
      <polygon class="cls-5" points="176.06 7.64 176.06 15.64 383.75 156.5 391.79 153.29 176.06 7.64"/>
      <polygon class="cls-6" points="176.06 7.64 176.06 15.64 21.76 80.9 13.47 75.54 176.06 7.64"/>
      <polygon class="cls-7" points="94.53 280.23 33.77 239.11 33.77 173.88 94.53 215 94.53 280.23"/>
      <polygon class="cls-8" points="62.05 197.15 36.41 179.78 36.41 240.78 62.05 258.13 62.05 197.15"/>
      <polygon class="cls-8" points="64.75 198.98 64.75 259.96 90.65 277.49 90.65 216.5 64.75 198.98"/>
      <polygon class="cls-9" points="7.46 253.52 29.16 267.46 29.16 202.77 27.05 201.33 7.46 209.52 7.46 253.52"/>
      <polygon class="cls-2" points="84.97 262.19 7.46 209.56 7.46 253.55 84.97 306.18 84.97 262.19"/>
      <polygon class="cls-10" points="84.97 306.18 104.56 297.98 104.56 254 84.97 262.19 84.97 306.18"/>
      <polygon class="cls-7" points="7.46 209.52 27.05 201.33 29.16 202.77 9.58 210.95 7.46 209.52"/>
      <polygon class="cls-7" points="82.86 260.76 102.45 252.57 104.56 254 84.97 262.19 82.86 260.76"/>
      <line class="cls-11" x1="7.46" y1="209.52" x2="84.97" y2="262.19"/>
      <line class="cls-11" x1="7.46" y1="209.52" x2="84.97" y2="262.19"/>
      <polygon class="cls-7" points="10.27 208.35 87.8 260.97 84.97 262.19 7.46 209.52 10.27 208.35"/>
      <polygon class="cls-7" points="121.47 232.72 121.47 318.26 207.14 376.09 207.14 290.46 121.47 232.72"/>
      <polygon class="cls-8" points="125.71 242.1 125.71 314.82 202.9 366.71 202.9 293.91 125.71 242.1"/>
      <polygon class="cls-7" points="165.95 345.22 160.25 340.92 160.25 263.58 165.95 267.64 165.95 345.22"/>
      <polygon class="cls-7" points="94.53 394.79 33.77 353.67 33.77 288.43 94.53 329.56 94.53 394.79"/>
      <polygon class="cls-8" points="62.05 311.7 36.41 294.34 36.41 355.32 62.05 372.68 62.05 311.7"/>
      <polygon class="cls-8" points="64.75 313.54 64.75 374.52 90.65 392.05 90.65 331.06 64.75 313.54"/>
      <polygon class="cls-9" points="7.46 368.07 29.16 382.02 29.16 317.33 27.05 315.89 7.46 324.08 7.46 368.07"/>
      <polygon class="cls-2" points="84.97 376.75 7.46 324.12 7.46 368.11 84.97 420.73 84.97 376.75"/>
      <polygon class="cls-10" points="84.97 420.73 104.56 412.54 104.56 368.56 84.97 376.75 84.97 420.73"/>
      <polygon class="cls-7" points="7.46 324.08 27.05 315.89 29.16 317.33 9.58 325.51 7.46 324.08"/>
      <polygon class="cls-7" points="82.86 375.32 102.45 367.13 104.56 368.56 84.97 376.75 82.86 375.32"/>
      <line class="cls-11" x1="7.46" y1="324.08" x2="84.97" y2="376.75"/>
      <line class="cls-11" x1="7.46" y1="324.08" x2="84.97" y2="376.75"/>
      <polygon class="cls-7" points="10.27 322.91 87.8 375.53 84.97 376.75 7.46 324.08 10.27 322.91"/>
      <polygon class="cls-7" points="121.47 347.28 121.47 432.82 207.14 490.65 207.14 405.02 121.47 347.28"/>
      <polygon class="cls-8" points="125.71 356.66 125.71 429.38 202.9 481.27 202.9 408.47 125.71 356.66"/>
      <polygon class="cls-7" points="165.95 459.78 160.25 455.48 160.25 378.14 165.95 382.21 165.95 459.78"/>
      <polygon class="cls-7" points="94.53 509.35 33.77 468.23 33.77 402.99 94.53 444.11 94.53 509.35"/>
      <polygon class="cls-8" points="62.05 426.26 36.41 408.9 36.41 469.88 62.05 487.24 62.05 426.26"/>
      <polygon class="cls-8" points="64.75 428.1 64.75 489.08 90.65 506.61 90.65 445.62 64.75 428.1"/>
      <polygon class="cls-9" points="7.46 482.63 29.16 496.58 29.16 431.88 27.05 430.45 7.46 438.64 7.46 482.63"/>
      <polygon class="cls-2" points="84.97 491.31 7.46 438.68 7.46 482.66 84.97 535.29 84.97 491.31"/>
      <polygon class="cls-10" points="84.97 535.29 104.56 527.11 104.56 483.12 84.97 491.31 84.97 535.29"/>
      <polygon class="cls-7" points="7.46 438.64 27.05 430.45 29.16 431.88 9.58 440.07 7.46 438.64"/>
      <polygon class="cls-7" points="82.86 489.88 102.45 481.68 104.56 483.12 84.97 491.31 82.86 489.88"/>
      <line class="cls-11" x1="7.46" y1="438.64" x2="84.97" y2="491.31"/>
      <line class="cls-11" x1="7.46" y1="438.64" x2="84.97" y2="491.31"/>
      <polygon class="cls-7" points="10.27 437.47 87.8 490.09 84.97 491.31 7.46 438.64 10.27 437.47"/>
      <polygon class="cls-7" points="121.47 461.84 121.47 547.38 207.14 605.21 207.14 519.58 121.47 461.84"/>
      <polygon class="cls-8" points="125.71 471.21 125.71 543.94 202.9 595.83 202.9 523.03 125.71 471.21"/>
      <polygon class="cls-7" points="165.95 574.34 160.25 570.04 160.25 492.7 165.95 496.77 165.95 574.34"/>
      <polygon class="cls-7" points="94.53 623.91 33.77 582.79 33.77 517.55 94.53 558.67 94.53 623.91"/>
      <polygon class="cls-8" points="62.05 540.82 36.41 523.46 36.41 584.45 62.05 601.8 62.05 540.82"/>
      <polygon class="cls-8" points="64.75 542.66 64.75 603.64 90.65 621.17 90.65 560.18 64.75 542.66"/>
      <polygon class="cls-9" points="7.46 597.19 29.16 611.14 29.16 546.44 27.05 545.01 7.46 553.2 7.46 597.19"/>
      <polygon class="cls-2" points="84.97 605.87 7.46 553.24 7.46 597.22 84.97 649.85 84.97 605.87"/>
      <polygon class="cls-10" points="84.97 649.85 104.56 641.66 104.56 597.68 84.97 605.87 84.97 649.85"/>
      <polygon class="cls-7" points="7.46 553.2 27.05 545.01 29.16 546.44 9.58 554.63 7.46 553.2"/>
      <polygon class="cls-7" points="82.86 604.43 102.45 596.25 104.56 597.68 84.97 605.87 82.86 604.43"/>
      <line class="cls-11" x1="7.46" y1="553.2" x2="84.97" y2="605.87"/>
      <line class="cls-11" x1="7.46" y1="553.2" x2="84.97" y2="605.87"/>
      <polygon class="cls-7" points="10.27 552.03 87.8 604.64 84.97 605.87 7.46 553.2 10.27 552.03"/>
      <polygon class="cls-7" points="121.47 576.39 121.47 661.94 207.14 719.77 207.14 634.14 121.47 576.39"/>
      <polygon class="cls-8" points="125.71 585.77 125.71 658.5 202.9 710.39 202.9 637.59 125.71 585.77"/>
      <polygon class="cls-7" points="165.95 688.9 160.25 684.6 160.25 607.26 165.95 611.32 165.95 688.9"/>
      <polygon class="cls-7" points="386.88 235.08 250.44 292.77 250.44 359.82 386.88 302.13 386.88 235.08"/>
      <polygon class="cls-8" points="382.26 242.14 255.07 296.32 255.07 352.76 382.26 298.58 382.26 242.14"/>
      <polygon class="cls-12" points="377.64 244.1 377.64 296.4 255.07 348.61 255.07 352.76 382.26 298.58 382.26 242.14 377.64 244.1"/>
      <polygon class="cls-7" points="386.88 352.76 250.44 410.46 250.44 477.51 386.88 419.82 386.88 352.76"/>
      <polygon class="cls-8" points="382.26 359.82 255.07 414.01 255.07 470.45 382.26 416.27 382.26 359.82"/>
      <polygon class="cls-12" points="377.64 361.79 377.64 414.09 255.07 466.29 255.07 470.45 382.26 416.27 382.26 359.82 377.64 361.79"/>
      <polygon class="cls-7" points="386.88 470.45 250.44 528.14 250.44 595.2 386.88 537.5 386.88 470.45"/>
      <polygon class="cls-8" points="382.26 477.51 255.07 531.69 255.07 588.14 382.26 533.95 382.26 477.51"/>
      <polygon class="cls-12" points="377.64 479.48 377.64 531.77 255.07 583.98 255.07 588.14 382.26 533.95 382.26 477.51 377.64 479.48"/>
      <polygon class="cls-7" points="386.88 588.14 250.44 645.83 250.44 712.88 386.88 655.19 386.88 588.14"/>
      <polygon class="cls-8" points="382.26 595.2 255.07 649.38 255.07 705.82 382.26 651.64 382.26 595.2"/>
      <polygon class="cls-12" points="377.64 597.16 377.64 649.46 255.07 701.66 255.07 705.82 382.26 651.64 382.26 595.2 377.64 597.16"/>
    </g>
  </g>
</svg>
