<svg xmlns="http://www.w3.org/2000/svg" viewBox="0 0 265 311.77">
  <defs>
    <style>
      .cls-1 {
        fill: #e5e5e5;
      }

      .cls-2 {
        fill: #eaeaea;
      }

      .cls-3 {
        fill: #e2e2e2;
      }

      .cls-4 {
        fill: #f2f2f2;
      }

      .cls-5 {
        fill: #4a50c3;
      }

      .cls-6 {
        fill: #fff;
      }

      .cls-7 {
        fill: #dbc35b;
      }

      .cls-8 {
        fill: #fde169;
      }

      .cls-9 {
        fill: #f46f6c;
      }

      .cls-10 {
        fill: #c93737;
      }

      .cls-11 {
        fill: #d93b3b;
      }

      .cls-12 {
        fill: #e83f3f;
      }

      .cls-13 {
        fill: #58595b;
      }

      .cls-14 {
        fill: #ecd262;
      }

      .cls-15 {
        fill: #ff5a5a;
      }

      .cls-16 {
        fill: #e8e8e8;
      }

      .cls-17 {
        fill: #f7f7f7;
      }

      .cls-18 {
        fill: #4045a9;
      }
    </style>
  </defs>
  <title>Asset 4</title>
  <g id="Layer_2" data-name="Layer 2">
    <g id="_404" data-name="404">
      <g>
        <g>
          <g>
            <path class="cls-1" d="M153,158.53v43.91h0l-20,9a1.21,1.21,0,0,0-.12,2.14L175,238.84a1.82,1.82,0,0,0,2.23-.28l13-13.24a3,3,0,0,0,.87-2.11V180.53Z"/>
            <path class="cls-2" d="M151.49,157.76v43.91h0l-20,9a1.2,1.2,0,0,0-.13,2.13l42.12,25.28a1.81,1.81,0,0,0,2.22-.29l13-13.23a3,3,0,0,0,.87-2.12V179.76Z"/>
          </g>
          <path class="cls-3" d="M255.62,248.3l-157-96.12c-2.89-1.66-5.23-6.13-5.23-10L89,5.65c0-3.85,5.9-7,9.59-5l161.2,93.07c2.89,1.67,5.23,6.14,5.23,10V241.3C265,247.35,258.51,250,255.62,248.3Z"/>
          <path class="cls-4" d="M255,248.05,93.8,155c-2.88-1.67-5.22-6.14-5.22-10V7.37c0-3.85,2.34-5.62,5.22-4L255,96.48c2.88,1.67,5.22,6.14,5.22,10V244.09C260.23,247.94,257.89,249.71,255,248.05Z"/>
          <polygon class="cls-5" points="250.25 232.91 98.56 145.33 98.56 18.55 250.25 106.13 250.25 232.91"/>
        </g>
        <path class="cls-4" d="M111.85,47.33c0,.91-.64,1.27-1.43.82A3.17,3.17,0,0,1,109,45.68c0-.9.64-1.27,1.42-.81A3.14,3.14,0,0,1,111.85,47.33Z"/>
        <path class="cls-4" d="M116.53,50c0,.91-.64,1.27-1.43.82a3.16,3.16,0,0,1-1.43-2.47c0-.9.64-1.27,1.43-.81A3.14,3.14,0,0,1,116.53,50Z"/>
        <path class="cls-4" d="M121.2,52.73c0,.91-.64,1.27-1.43.82a3.17,3.17,0,0,1-1.42-2.47c0-.9.64-1.27,1.42-.81A3.14,3.14,0,0,1,121.2,52.73Z"/>
        <g>
          <g>
            <path class="cls-3" d="M239.21,111.4l-132-76.24a3,3,0,0,0-3-.29l-2.55,1.48a3,3,0,0,1,3,.3l132,76.23a9.41,9.41,0,0,1,4.27,7.4l-.27,96.63a3,3,0,0,1-1.25,2.74l2.55-1.48a3,3,0,0,0,1.25-2.75l.28-96.62A9.46,9.46,0,0,0,239.21,111.4Z"/>
            <path class="cls-6" d="M236.65,112.88a9.41,9.41,0,0,1,4.27,7.4l-.27,96.63c0,2.71-1.93,3.81-4.3,2.44l-132-76.23a9.42,9.42,0,0,1-4.26-7.4l.27-96.62c0-2.72,1.93-3.82,4.3-2.45Z"/>
          </g>
          <g>
            <path class="cls-7" d="M239.07,111.4,107,35.16a3,3,0,0,0-3-.29l-2.55,1.48a3,3,0,0,1,3,.3l132.05,76.23a9.43,9.43,0,0,1,4.27,7.4l0,6.55,2.55-1.48,0-6.55A9.41,9.41,0,0,0,239.07,111.4Z"/>
            <path class="cls-8" d="M236.52,112.88a9.43,9.43,0,0,1,4.27,7.4l0,6.55L100.16,45.65l0-6.55c0-2.72,1.93-3.82,4.29-2.45Z"/>
          </g>
          <g>
            <g>
              <path class="cls-9" d="M150.93,137.06l-2.17-1.25v-8.06l-17-9.81v-2.13l12.91-16.25,2.36,1.36-12.94,16.24,14.65,8.46V112.15l2.17,1.25v13.47l3.27,2.74v1.28L150.93,129Z"/>
              <path class="cls-9" d="M158,124.25q0-17.23,12.77-9.86,12.54,7.23,12.54,24.47t-12.54,9.9Q158.69,141.77,158,124.25Zm12.77,22.38q10.16,5.87,10.16-9.28,0-15-10.16-20.83-10.39-6-10.4,9Q160.39,140.63,170.79,146.63Z"/>
              <path class="cls-9" d="M206,168.85l-2.17-1.25v-8.06l-17-9.81V147.6l12.91-16.25,2.36,1.36L189.18,149l14.64,8.46V143.94l2.17,1.25v13.47l3.27,2.74v1.28L206,160.79Z"/>
            </g>
            <g>
              <path class="cls-9" d="M148.78,142.39v1l-8-4.63V145l7.68,4.44v1L140.77,146v6.5l8.14,4.71v1L139.76,153V137.19Z"/>
              <path class="cls-9" d="M151.75,159.87V144.11l5.67,3.27c2.48,1.44,3.73,3.41,3.73,5.94q0,3.27-4.05,2.3l4.64,10-1.38-.79-4.57-9.95v-.78q4.23,1.73,4.23-1.37a4.93,4.93,0,0,0-2.77-4.44l-4.49-2.59v14.74Z"/>
              <path class="cls-9" d="M163.62,166.73V151l5.66,3.27a6.61,6.61,0,0,1,3.73,5.94q0,3.27-4,2.3l4.64,10-1.39-.8-4.56-9.95V161c2.82,1.15,4.23.69,4.23-1.36a4.93,4.93,0,0,0-2.77-4.45l-4.5-2.59v14.74Z"/>
              <path class="cls-9" d="M175,165.44q0-8,6.9-4a12.87,12.87,0,0,1,6.79,11.93q0,8-6.79,4A12.94,12.94,0,0,1,175,165.44Zm6.9,11q5.68,3.28,5.69-3.76T181.9,162.4q-5.79-3.35-5.79,3.61T181.9,176.4Z"/>
              <path class="cls-9" d="M191.29,182.7V166.94l5.67,3.27a6.59,6.59,0,0,1,3.72,5.93c0,2.19-1.34,3-4,2.31l4.64,10-1.38-.8-4.57-9.94V177c2.82,1.14,4.23.69,4.23-1.37a4.91,4.91,0,0,0-2.77-4.44l-4.49-2.6v14.75Z"/>
            </g>
          </g>
          <polygon class="cls-5" points="111.85 64.37 109 62.72 109 59.44 111.85 61.09 111.85 64.37"/>
          <polygon class="cls-5" points="117.78 67.79 114.93 66.14 114.93 62.87 117.78 64.52 117.78 67.79"/>
          <g>
            <polygon class="cls-5" points="234.52 132.2 228.24 128.58 228.24 127.45 234.52 131.07 234.52 132.2"/>
            <polygon class="cls-5" points="234.52 134.12 228.24 130.49 228.24 129.36 234.52 132.99 234.52 134.12"/>
            <polygon class="cls-5" points="234.52 136.03 228.24 132.4 228.24 131.27 234.52 134.9 234.52 136.03"/>
          </g>
          <polygon class="cls-3" points="207.22 121.03 133.82 78.65 133.82 72.17 207.22 114.55 207.22 121.03"/>
          <g>
            <path class="cls-5" d="M215.07,125.56l-4.8-2.77a1,1,0,0,1-.42-.81v-5.34c0-.32.19-.46.42-.33l4.8,2.77a1,1,0,0,1,.42.81v5.35C215.49,125.55,215.3,125.69,215.07,125.56Z"/>
            <g>
              <path class="cls-3" d="M212.23,121.68a2.9,2.9,0,0,1-1.32-2.27c0-.83.59-1.17,1.32-.75a2.92,2.92,0,0,1,1.31,2.27C213.54,121.77,213,122.1,212.23,121.68Zm0-2.47c-.47-.27-.84-.06-.84.48a1.84,1.84,0,0,0,.84,1.45c.46.26.84,0,.84-.48A1.84,1.84,0,0,0,212.23,119.21Z"/>
              <polygon class="cls-3" points="214.09 123.78 213.19 122.22 213.53 122.03 214.43 123.59 214.09 123.78"/>
            </g>
          </g>
        </g>
        <g>
          <g>
            <path class="cls-10" d="M74.34,230.17l-16,9.3a1.13,1.13,0,0,1-1,0l-16.12-9.31a.36.36,0,0,1-.21-.3v1.48a.36.36,0,0,0,.21.3L57.3,241a1.08,1.08,0,0,0,1,0l16-9.3a.37.37,0,0,0,.21-.3v-1.48A.36.36,0,0,1,74.34,230.17Z"/>
            <path class="cls-11" d="M74.34,229.58a.31.31,0,0,1,0,.59l-16,9.31a1.17,1.17,0,0,1-1,0l-16.12-9.31a.31.31,0,0,1,0-.59l16-9.31a1.14,1.14,0,0,1,1,0Z"/>
            <path class="cls-12" d="M68.15,229.31h0a3.74,3.74,0,0,0-.54-1.93L61.32,205H54.2l-6.33,22.49a3.8,3.8,0,0,0-.5,1.81h0c0,1.54,1,3.08,3,4.25a16.22,16.22,0,0,0,14.69,0c2-1.17,3-2.69,3.07-4.22Z"/>
            <path class="cls-10" d="M55.19,206.84c-1.41-.81-1.4-2.13,0-3a5.65,5.65,0,0,1,5.11,0c1.41.81,1.4,2.13,0,3A5.67,5.67,0,0,1,55.19,206.84Z"/>
            <path class="cls-4" d="M67,225l-1.16-4.11a7,7,0,0,1-1.52,1.15,14.45,14.45,0,0,1-13.06,0,7,7,0,0,1-1.5-1.14l-1.15,4.1a4.82,4.82,0,0,0,2.65,3.28,14.42,14.42,0,0,0,13.06,0A5,5,0,0,0,67,225Z"/>
            <path class="cls-4" d="M63,211.06a15.08,15.08,0,0,1-10.55,0L51,216.57a3,3,0,0,0,.26.16,14.42,14.42,0,0,0,13.06,0l.29-.19Z"/>
          </g>
          <g>
            <path class="cls-10" d="M195.26,300.86l-16,9.31a1.13,1.13,0,0,1-1,0l-16.11-9.3c-.15-.09-.22-.19-.22-.3v1.48a.36.36,0,0,0,.21.29l16.12,9.31a1.17,1.17,0,0,0,1,0l16-9.31a.35.35,0,0,0,.21-.29v-1.48A.35.35,0,0,1,195.26,300.86Z"/>
            <path class="cls-11" d="M195.25,300.27c.29.17.29.43,0,.6l-16,9.3a1.1,1.1,0,0,1-1,0l-16.11-9.3c-.29-.17-.29-.43,0-.6l16-9.3a1.08,1.08,0,0,1,1,0Z"/>
            <path class="cls-12" d="M189.06,300h0a3.77,3.77,0,0,0-.54-1.94l-6.28-22.37h-7.13l-6.32,22.49a3.82,3.82,0,0,0-.51,1.81h0c0,1.54,1,3.08,3,4.26a16.27,16.27,0,0,0,14.7,0c2-1.17,3-2.7,3.06-4.23Z"/>
            <path class="cls-10" d="M176.11,277.54c-1.41-.82-1.4-2.14,0-3a5.7,5.7,0,0,1,5.12,0c1.4.82,1.4,2.14,0,3A5.65,5.65,0,0,1,176.11,277.54Z"/>
            <path class="cls-4" d="M187.86,295.73l-1.15-4.12a7,7,0,0,1-1.53,1.16,14.42,14.42,0,0,1-13.06,0,6.69,6.69,0,0,1-1.5-1.13l-1.15,4.1a4.86,4.86,0,0,0,2.65,3.28,14.45,14.45,0,0,0,13.06,0A4.9,4.9,0,0,0,187.86,295.73Z"/>
            <path class="cls-4" d="M183.94,281.76a15,15,0,0,1-10.54,0l-1.54,5.47.26.17a14.45,14.45,0,0,0,13.06,0,2,2,0,0,0,.29-.18Z"/>
          </g>
          <g>
            <g>
              <g>
                <path class="cls-3" d="M98,177.47l-7.44-4.3a1.32,1.32,0,0,0-1.32-.13l-1.84,1.07a1.3,1.3,0,0,1,1.32.13l7.44,4.3a4.06,4.06,0,0,1,1.85,3.2l-.28,69.72a1.28,1.28,0,0,1-.54,1.19L99,251.58a1.29,1.29,0,0,0,.54-1.19l.28-69.72A4.06,4.06,0,0,0,98,177.47Z"/>
                <path class="cls-2" d="M96.11,178.54a4.06,4.06,0,0,1,1.85,3.2l-.28,69.72c0,1.18-.83,1.65-1.86,1.06l-7.44-4.3a4.06,4.06,0,0,1-1.85-3.2l.28-69.72c0-1.18.83-1.65,1.86-1.06Z"/>
              </g>
              <g>
                <path class="cls-3" d="M156.74,211.41l-7.45-4.3A1.29,1.29,0,0,0,148,207l-1.84,1.07a1.29,1.29,0,0,1,1.32.13l7.45,4.3a4,4,0,0,1,1.84,3.19l-.28,69.73a1.29,1.29,0,0,1-.54,1.19l1.84-1.07a1.29,1.29,0,0,0,.54-1.19l.28-69.73A4,4,0,0,0,156.74,211.41Z"/>
                <path class="cls-2" d="M154.9,212.48a4,4,0,0,1,1.84,3.19l-.28,69.73c0,1.17-.83,1.65-1.85,1.06l-7.45-4.3a4.07,4.07,0,0,1-1.85-3.2l.28-69.73c0-1.17.84-1.64,1.86-1Z"/>
              </g>
            </g>
            <g>
              <g>
                <path class="cls-8" d="M74.2,208l2.94-1.7a4.59,4.59,0,0,0,2.1,3.64l-2.94,1.7A4.65,4.65,0,0,1,74.2,208Z"/>
                <polygon class="cls-8" points="74.21 204.83 77.14 203.13 77.14 206.31 74.2 208.01 74.21 204.83"/>
                <polygon class="cls-8" points="74.29 178.43 77.22 176.73 77.18 190.09 74.25 191.8 74.29 178.43"/>
                <polygon class="cls-8" points="92.29 220.88 95.23 219.18 106.86 225.9 103.93 227.6 92.29 220.88"/>
                <polygon class="cls-8" points="115.27 234.15 118.2 232.45 129.84 239.16 126.91 240.87 115.27 234.15"/>
                <polygon class="cls-8" points="138.25 247.42 141.18 245.71 152.82 252.43 149.88 254.13 138.25 247.42"/>
                <path class="cls-8" d="M159.64,208.87l-44.37,25.28,11.64,6.72,39.47-22.5,0,13-28.1,16,11.63,6.71,16.43-9.35-.05,16.38c0,1.34-.95,1.88-2.11,1.21L76.3,211.65A4.65,4.65,0,0,1,74.2,208l.13-46c0-1.34,1-1.88,2.12-1.21l14.26,8.24-16.42,9.36,0,13.37,28.1-16,11.34,6.55L74.21,204.83V208a4.65,4.65,0,0,0,2.1,3.64L81,214.34l44.37-25.29,11.34,6.55L92.29,220.89l11.64,6.71,44.37-25.28Z"/>
                <polygon class="cls-8" points="76.3 211.65 79.23 209.95 83.88 212.63 80.95 214.34 76.3 211.65"/>
                <polygon class="cls-13" points="102.35 175.79 74.25 191.8 74.29 178.43 90.71 169.07 102.35 175.79"/>
                <path class="cls-13" d="M125.32,189.05,81,214.34l-4.65-2.69A4.65,4.65,0,0,1,74.2,208v-3.18l39.48-22.49Z"/>
                <polygon class="cls-13" points="148.3 202.32 103.93 227.6 92.29 220.88 136.66 195.6 148.3 202.32"/>
                <polygon class="cls-13" points="166.35 231.41 166.31 244.78 149.88 254.13 138.25 247.42 166.35 231.41"/>
                <path class="cls-13" d="M164.29,211.55a4.62,4.62,0,0,1,2.1,3.64v3.18l-39.47,22.5-11.64-6.72,44.37-25.28Z"/>
              </g>
              <path class="cls-14" d="M167.22,209.85l-4.65-2.69-11.34-6.55-11.64-6.71-11.34-6.55-11.63-6.72-11.34-6.55-11.64-6.71-14.26-8.24a1.46,1.46,0,0,0-1.5-.14L75,160.69a1.49,1.49,0,0,1,1.49.14l14.27,8.24,11.63,6.72,11.35,6.55,11.63,6.71,11.34,6.55,11.64,6.72,11.34,6.55,4.65,2.68a4.65,4.65,0,0,1,2.1,3.64v3.18l0,13,0,13.37-.05,16.38a1.48,1.48,0,0,1-.62,1.36l2.94-1.71a1.49,1.49,0,0,0,.61-1.35l.05-16.39,0-13.37,0-13v-3.19A4.62,4.62,0,0,0,167.22,209.85Z"/>
              <g>
                <path class="cls-15" d="M154.73,249.86,84.46,209.29a1.41,1.41,0,0,1-.71-1.22v-33.5a1.41,1.41,0,0,1,2.12-1.22l70.27,40.57a1.41,1.41,0,0,1,.7,1.22v33.5A1.41,1.41,0,0,1,154.73,249.86Z"/>
                <g>
                  <g>
                    <path class="cls-6" d="M92.86,192v-8l1.46.84v8a6.08,6.08,0,0,0,3.24,5.61q3.25,1.88,3.25-1.87v-8l1.46.84v8q0,5.1-4.71,2.38A8.58,8.58,0,0,1,92.86,192Z"/>
                    <path class="cls-6" d="M104.89,203.91v-13l1.46.85,6.92,14.46V195.77l1.39.8v13l-1.47-.84-6.92-14.55v10.55Z"/>
                    <path class="cls-6" d="M117.35,211.11v-13l4.12,2.38a10.26,10.26,0,0,1,5.61,9.38q0,6.84-5.61,3.6Zm4.12,1q4.16,2.4,4.15-3.09a7.77,7.77,0,0,0-4.15-7.17l-2.66-1.53v10.26Z"/>
                    <path class="cls-6" d="M136.62,209.25v1.36l-5.93-3.43v4.36l5.65,3.27v1.36l-5.65-3.27v4.54l6.05,3.5v1.36L129.22,218V205Z"/>
                    <path class="cls-6" d="M139,223.58v-13l4.82,2.79c2.16,1.24,3.23,2.9,3.23,5q0,2.53-3.16,1.93l3.89,8.36-1.93-1.11-3.6-7.92v-1.1c2.16.85,3.24.53,3.24-1a3.18,3.18,0,0,0-1.8-2.84l-3.23-1.86v11.59Z"/>
                  </g>
                  <g>
                    <path class="cls-6" d="M95.72,209a4.83,4.83,0,0,1-1.43-.58,5,5,0,0,1-2.68-4.61c0-1.93.9-2.37,2.68-1.34a7,7,0,0,1,1.43,1.07v.66a6.53,6.53,0,0,0-1.35-1.08c-1.4-.8-2.1-.44-2.1,1.07a4,4,0,0,0,2.1,3.66,3.82,3.82,0,0,0,1.35.49Z"/>
                    <path class="cls-6" d="M96.64,206.75c0-2,.85-2.49,2.56-1.5a4.81,4.81,0,0,1,2.53,4.45q0,3-2.53,1.5A4.81,4.81,0,0,1,96.64,206.75Zm2.56,3.84c1.23.7,1.84.26,1.84-1.32a3.62,3.62,0,0,0-1.84-3.4c-1.24-.72-1.87-.3-1.87,1.26A3.71,3.71,0,0,0,99.2,210.59Z"/>
                    <path class="cls-6" d="M102.77,213.22v-5.87l.66.39,3.13,6.53v-4.73l.63.36v5.87l-.66-.38-3.13-6.58v4.77Z"/>
                    <path class="cls-6" d="M108.33,216.23v-.7a8.74,8.74,0,0,0,1.74,1.33c.88.51,1.32.4,1.32-.34a1.7,1.7,0,0,0-1-1.51l-.66-.38a2.83,2.83,0,0,1-1.61-2.53c0-1.12.69-1.28,2.06-.49a9.35,9.35,0,0,1,1.66,1.2v.7a8.15,8.15,0,0,0-1.66-1.29c-.93-.53-1.39-.45-1.39.27a1.65,1.65,0,0,0,.94,1.48l.66.38a2.85,2.85,0,0,1,1.63,2.55c0,1.15-.66,1.34-2,.58A11.27,11.27,0,0,1,108.33,216.23Z"/>
                    <path class="cls-6" d="M116.47,215.26v.62l-1.61-.93v5.25l-.66-.38v-5.25l-1.61-.93V213Z"/>
                    <path class="cls-6" d="M117.26,221.59v-5.87l2.18,1.26a2.53,2.53,0,0,1,1.46,2.25c0,.76-.48,1.05-1.43.87l1.76,3.78-.87-.5-1.63-3.58v-.5c1,.39,1.46.24,1.46-.45a1.43,1.43,0,0,0-.81-1.28l-1.46-.84V222Z"/>
                    <path class="cls-6" d="M121.89,222v-3.61l.66.38v3.61a2.77,2.77,0,0,0,1.47,2.54c1,.56,1.46.28,1.46-.85v-3.6l.67.38v3.6q0,2.31-2.13,1.08A3.88,3.88,0,0,1,121.89,222Z"/>
                    <path class="cls-6" d="M131.19,229.43a5.31,5.31,0,0,1-1.43-.58,5,5,0,0,1-2.68-4.61q0-2.9,2.68-1.35a7.79,7.79,0,0,1,1.43,1.08v.65a6.58,6.58,0,0,0-1.36-1.07c-1.39-.8-2.09-.45-2.09,1.07a4,4,0,0,0,2.09,3.65,3.77,3.77,0,0,0,1.36.5Z"/>
                    <path class="cls-6" d="M135.73,226.38V227l-1.61-.93v5.25l-.66-.38v-5.25l-1.61-.93v-.62Z"/>
                    <path class="cls-6" d="M137.29,227.28v5.87l-.66-.38V226.9Z"/>
                    <path class="cls-6" d="M138.43,230.89q0-3,2.57-1.51a4.81,4.81,0,0,1,2.53,4.45q0,3-2.53,1.51A4.84,4.84,0,0,1,138.43,230.89Zm2.57,3.83q1.83,1.07,1.83-1.32A3.64,3.64,0,0,0,141,230c-1.25-.72-1.87-.3-1.87,1.26A3.69,3.69,0,0,0,141,234.72Z"/>
                    <path class="cls-6" d="M144.57,237.35v-5.87l.66.39,3.13,6.53v-4.73l.62.36v5.87l-.66-.38L145.19,233v4.77Z"/>
                  </g>
                </g>
              </g>
            </g>
          </g>
        </g>
        <g>
          <g>
            <path class="cls-16" d="M215.73,269.12c6.05-3.52,15.89-3.52,22,0,3.07,1.76,4.6,4.09,4.59,6.4v-4.67c0-2.32-1.52-4.64-4.58-6.41-6.09-3.52-15.93-3.52-22,0-3,1.74-4.51,4-4.51,6.32l0,4.68C211.22,273.15,212.73,270.86,215.73,269.12Z"/>
            <path class="cls-16" d="M243.77,280.62a32,32,0,0,1-12.31,3.8v4.68a31.92,31.92,0,0,0,12.3-3.8c4.64-2.7,7-6.22,7-9.75v-4.68C250.72,274.4,248.4,277.92,243.77,280.62Z"/>
            <path class="cls-16" d="M222.24,293.49v-4.68l0-4.39a32.22,32.22,0,0,1-12.35-3.8c-4.73-2.73-7.09-6.31-7.08-9.89v4.68c0,3.58,2.35,7.16,7.07,9.89a32.28,32.28,0,0,0,12.35,3.8Z"/>
            <path class="cls-16" d="M231.48,303.52h-9.06a3.44,3.44,0,0,1-1.72-.42,1.21,1.21,0,0,1-.72-1l-.07-13.3,0,4.68.08,13.3a1.19,1.19,0,0,0,.72,1,3.44,3.44,0,0,0,1.72.42h9.05c1.35,0,2.44-.63,2.43-1.41v-4.68C233.91,302.89,232.82,303.52,231.48,303.52Z"/>
          </g>
          <path class="cls-17" d="M233.9,302.11c0,.78-1.08,1.41-2.42,1.41h-9.06a3.44,3.44,0,0,1-1.72-.42,1.21,1.21,0,0,1-.72-1l-.07-13.3h2.34l0-4.39a32.22,32.22,0,0,1-12.35-3.8c-9.4-5.43-9.45-14.22-.12-19.64s24.5-5.42,33.9,0,9.44,14.21.11,19.63a32,32,0,0,1-12.31,3.8l0,4.39h2.35Zm-18.09-24.94c6.09,3.51,15.93,3.51,22,0s6-9.22-.07-12.73-15.93-3.52-22,0-6,9.21.07,12.73"/>
        </g>
        <g>
          <g>
            <polygon class="cls-16" points="63.1 181.99 63.09 184.46 57.33 187.81 57.33 185.34 63.1 181.99"/>
            <path class="cls-16" d="M56.06,189.58v-2.47a2.16,2.16,0,0,1,1.26-1.77v2.47A2.15,2.15,0,0,0,56.06,189.58Z"/>
            <polygon class="cls-16" points="47.94 189.89 47.94 192.36 46.18 188.59 46.18 186.13 47.94 189.89"/>
            <polygon class="cls-16" points="62.19 195.37 62.18 197.83 55.68 196.83 55.69 194.36 62.19 195.37"/>
            <polygon class="cls-16" points="71.36 190.03 71.36 192.5 62.18 197.83 62.19 195.37 71.36 190.03"/>
            <polygon class="cls-16" points="55.69 194.36 55.68 196.83 32.29 210.42 32.3 207.95 55.69 194.36"/>
            <path class="cls-16" d="M24.18,210.72v2.47a2.19,2.19,0,0,0-1.28-1.79,6.8,6.8,0,0,0-6.15,0v-2.47a6.78,6.78,0,0,1,6.14,0A2.2,2.2,0,0,1,24.18,210.72Z"/>
            <polygon class="cls-16" points="10.98 212.28 10.97 214.75 8.87 210.27 8.88 207.81 10.98 212.28"/>
            <polygon class="cls-16" points="16.75 208.93 16.74 211.4 10.97 214.75 10.98 212.28 16.75 208.93"/>
            <polygon class="cls-16" points="34.06 211.71 34.05 214.18 24.88 219.51 24.88 217.04 34.06 211.71"/>
            <polygon class="cls-16" points="24.88 217.04 24.88 219.51 17.14 218.31 17.14 215.84 24.88 217.04"/>
          </g>
          <path class="cls-17" d="M69.27,185.55,71.36,190l-9.17,5.34-6.5-1L32.3,208l1.76,3.76L24.88,217l-7.73-1.2,5.76-3.35c1.7-1,1.69-2.57,0-3.56a6.78,6.78,0,0,0-6.14,0L11,212.28l-2.1-4.47,9.18-5.34,6.5,1,23.38-13.59-1.76-3.76,9.18-5.34L63.1,182l-5.77,3.35c-1.69,1-1.68,2.58,0,3.57a6.8,6.8,0,0,0,6.15,0Z"/>
        </g>
        <g>
          <polygon class="cls-3" points="0.02 174.28 0.01 179.18 0 177.4 0.01 172.5 0.02 174.28"/>
          <polygon class="cls-3" points="0.03 176.05 0.02 180.95 0.01 179.18 0.02 174.28 0.03 176.05"/>
          <g>
            <path class="cls-16" d="M29.54,169.31v4.9a.31.31,0,0,1-.15.25v-4.89A.34.34,0,0,0,29.54,169.31Z"/>
            <path class="cls-16" d="M31.86,176.05l0,4.9c0,.21-.26.39-.62.42v-4.9C31.59,176.44,31.86,176.26,31.86,176.05Z"/>
            <path class="cls-16" d="M29.6,179.24l0,4.9a.35.35,0,0,1-.2.29v-4.9A.35.35,0,0,0,29.6,179.24Z"/>
            <path class="cls-16" d="M2.26,174.21v-4.9a.33.33,0,0,0,.16.26l0,4.89A.31.31,0,0,1,2.26,174.21Z"/>
            <polygon class="cls-16" points="29.39 169.57 29.38 174.47 26.5 176.63 26.52 171.73 29.39 169.57"/>
            <polygon class="cls-16" points="5.33 171.73 5.31 176.63 2.41 174.47 2.43 169.57 5.33 171.73"/>
            <path class="cls-16" d="M22.76,174.3l0,4.89a3.43,3.43,0,0,0-2-2.81,10.66,10.66,0,0,0-9.65,0,3.38,3.38,0,0,0-2,2.77l0-4.89a3.38,3.38,0,0,1,2-2.78,10.63,10.63,0,0,1,9.64,0A3.43,3.43,0,0,1,22.76,174.3Z"/>
            <path class="cls-16" d="M.66,176.47v4.9a1.22,1.22,0,0,1-.42-.12A.37.37,0,0,1,0,181v-4.9a.36.36,0,0,0,.22.3A1,1,0,0,0,.66,176.47Z"/>
            <polygon class="cls-16" points="31.23 176.47 31.22 181.37 26.53 181.72 26.55 176.82 31.23 176.47"/>
            <polygon class="cls-16" points="5.36 176.82 5.34 181.72 0.65 181.37 0.66 176.47 5.36 176.82"/>
            <path class="cls-16" d="M2.32,184.14v-4.9a.37.37,0,0,0,.21.3v4.89A.35.35,0,0,1,2.32,184.14Z"/>
            <polygon class="cls-16" points="29.39 179.53 29.38 184.43 27.21 185.69 27.22 180.79 29.39 179.53"/>
            <polygon class="cls-16" points="4.72 180.79 4.71 185.69 2.53 184.44 2.54 179.54 4.72 180.79"/>
            <polygon class="cls-16" points="27.22 180.79 27.21 185.69 25.05 186.95 25.06 182.05 27.22 180.79"/>
            <polygon class="cls-16" points="24.11 182.09 24.1 186.98 20.34 185.31 20.36 180.41 24.11 182.09"/>
            <polygon class="cls-16" points="6.9 182.05 6.88 186.95 4.71 185.69 4.72 180.79 6.9 182.05"/>
            <polygon class="cls-16" points="11.58 180.41 11.57 185.31 7.84 186.99 7.85 182.09 11.58 180.41"/>
            <path class="cls-16" d="M25.06,182.05V187a1.12,1.12,0,0,1-.95,0v-4.89A1.16,1.16,0,0,0,25.06,182.05Z"/>
            <path class="cls-16" d="M7.85,182.09V187a1.19,1.19,0,0,1-1,0l0-4.9A1.16,1.16,0,0,0,7.85,182.09Z"/>
            <polygon class="cls-16" points="20.36 180.41 20.34 185.31 19.76 188.03 19.77 183.13 20.36 180.41"/>
            <polygon class="cls-16" points="12.2 183.13 12.19 188.03 11.57 185.31 11.58 180.41 12.2 183.13"/>
            <path class="cls-16" d="M19.77,183.13V188c-.05.21-.35.36-.72.36l0-4.9C19.42,183.49,19.73,183.34,19.77,183.13Z"/>
            <polygon class="cls-16" points="19.06 183.49 19.04 188.39 15.97 188.39 15.99 183.49 19.06 183.49"/>
            <polygon class="cls-16" points="15.99 183.49 15.97 188.39 12.9 188.39 12.92 183.49 15.99 183.49"/>
            <path class="cls-16" d="M12.92,183.49l0,4.9a1,1,0,0,1-.51-.12.38.38,0,0,1-.2-.24v-4.9a.4.4,0,0,0,.21.24A1,1,0,0,0,12.92,183.49Z"/>
          </g>
          <path class="cls-17" d="M29.45,179a.31.31,0,0,1-.06.55l-2.17,1.26-2.16,1.26a1.16,1.16,0,0,1-.95,0l-3.75-1.68-.59,2.72c0,.21-.35.36-.71.36H12.92a1,1,0,0,1-.51-.12.4.4,0,0,1-.21-.24l-.62-2.72-3.73,1.68a1.16,1.16,0,0,1-.95,0l-2.18-1.26-2.18-1.25c-.26-.15-.28-.39-.06-.55l2.88-2.17-4.7-.35a1,1,0,0,1-.41-.12.36.36,0,0,1-.22-.3V172.5c0-.21.27-.39.63-.42l4.69-.35-2.9-2.16a.3.3,0,0,1,0-.55l2.17-1.26,2.16-1.26a1.12,1.12,0,0,1,1,0l3.75,1.67.59-2.72c.05-.21.35-.36.71-.36H19a1,1,0,0,1,.51.12.4.4,0,0,1,.21.24l.62,2.72L24,166.47a1.12,1.12,0,0,1,.95,0l2.18,1.26L29.33,169a.3.3,0,0,1,.06.55l-2.87,2.16,4.69.35a1.22,1.22,0,0,1,.42.12.37.37,0,0,1,.21.3v3.55c0,.21-.27.39-.63.42l-4.68.35Zm-18.32-1.91a10.63,10.63,0,0,0,9.64,0c2.66-1.54,2.64-4,0-5.59a10.63,10.63,0,0,0-9.64,0c-2.66,1.54-2.64,4.05,0,5.59"/>
        </g>
        <g>
          <path class="cls-5" d="M94.89,117.84,79.57,78.26a5.17,5.17,0,0,0-2.06-2.56c-.8-.46-1.6-.47-2.07.18L59.94,97.66C59,99,60.16,101.9,62,103l30.83,17.8C94.65,121.81,95.81,120.19,94.89,117.84Z"/>
          <path class="cls-18" d="M98.83,115.55,83.51,76a5.17,5.17,0,0,0-2.06-2.56,1.7,1.7,0,0,0-1.69-.17l-3.94,2.29a1.7,1.7,0,0,1,1.69.17,5.17,5.17,0,0,1,2.06,2.56l15.32,39.58c.58,1.48.33,2.67-.38,3.08l3.94-2.29C99.16,118.22,99.41,117,98.83,115.55Z"/>
          <g>
            <polygon class="cls-6" points="76.11 107.19 76.12 104.68 78.67 106.15 78.66 108.66 76.11 107.19"/>
            <polygon class="cls-6" points="76.17 87.79 78.72 89.27 78.68 103.64 76.13 102.17 76.17 87.79"/>
          </g>
        </g>
        <g>
          <path class="cls-12" d="M240.6,224.93A13.29,13.29,0,0,0,243,226l-2.63,1.53a13.29,13.29,0,0,1-2.36-1.09Z"/>
          <path class="cls-12" d="M229,204.77c0,7.4,5.2,16.45,11.64,20.16L238,226.46c-6.44-3.72-11.66-12.76-11.64-20.16,0-3.68,1.32-6.27,3.41-7.49l2.63-1.53c-2.1,1.22-3.4,3.81-3.41,7.49Z"/>
          <path class="cls-6" d="M232.79,218.3l2.63-1.53a17.09,17.09,0,0,0,5.19,4.94L238,223.24A17.09,17.09,0,0,1,232.79,218.3Z"/>
          <path class="cls-6" d="M229.14,207.91l2.63-1.52a16.77,16.77,0,0,0,1.67,7l-2.63,1.53A16.81,16.81,0,0,1,229.14,207.91Z"/>
          <path class="cls-6" d="M246.93,222.33l-2.63,1.53c-1.62.93-3.85.8-6.32-.62l2.63-1.53C243.08,223.14,245.31,223.27,246.93,222.33Z"/>
          <path class="cls-6" d="M231.73,202.23l2.63-1.53c-1.6.92-2.59,2.89-2.59,5.69l-2.63,1.52C229.14,205.12,230.13,203.15,231.73,202.23Z"/>
          <path class="cls-12" d="M243,226a7.08,7.08,0,0,0,5.95-.28l-2.63,1.53a7.08,7.08,0,0,1-5.95.28Z"/>
          <path class="cls-12" d="M231.73,202.23l2.63-1.53c1.61-.94,3.85-.81,6.31.61L238,202.84C235.58,201.42,233.34,201.29,231.73,202.23Z"/>
          <path class="cls-6" d="M229.74,198.81l2.63-1.53c2.13-1.23,5.07-1.06,8.31.81l-2.63,1.53C234.81,197.75,231.87,197.57,229.74,198.81Z"/>
          <path class="cls-12" d="M249.52,216.64c0,2.79-1,4.76-2.59,5.69l-2.63,1.53c1.59-.93,2.58-2.9,2.59-5.7a16.79,16.79,0,0,0-1.68-6.95l2.63-1.53A16.87,16.87,0,0,1,249.52,216.64Z"/>
          <polygon class="cls-12" points="232.79 218.29 235.42 216.77 247.84 209.68 245.22 211.21 232.79 218.29"/>
          <polygon class="cls-6" points="230.81 214.87 233.44 213.34 245.87 206.26 243.24 207.79 230.81 214.87"/>
          <path class="cls-12" d="M240.67,201.31a17,17,0,0,1,5.2,4.95l-2.63,1.53a17,17,0,0,0-5.2-4.95Z"/>
          <path class="cls-6" d="M248.91,225.74l-2.63,1.53c2.1-1.22,3.4-3.81,3.41-7.49,0-7.4-5.2-16.44-11.64-20.16l2.63-1.53c6.44,3.72,11.66,12.76,11.64,20.17C252.31,221.93,251,224.52,248.91,225.74Z"/>
          <path class="cls-6" d="M238.05,199.62c6.44,3.72,11.67,12.76,11.64,20.16s-5.27,10.4-11.72,6.68-11.66-12.76-11.64-20.16S231.61,195.9,238.05,199.62Zm-8.91,8.29a16.81,16.81,0,0,0,1.67,7l12.43-7.08a17,17,0,0,0-5.2-4.95c-4.89-2.83-8.89-.55-8.9,5.07M238,223.24c4.9,2.83,8.89.55,8.91-5.08a16.79,16.79,0,0,0-1.68-6.95l-12.42,7.09a17.09,17.09,0,0,0,5.19,4.94"/>
          <path class="cls-12" d="M232.79,218.3l12.42-7.09a16.79,16.79,0,0,1,1.68,6.95c0,5.63-4,7.91-8.91,5.08A17.09,17.09,0,0,1,232.79,218.3Z"/>
          <path class="cls-12" d="M238,202.84a17,17,0,0,1,5.2,4.95l-12.43,7.08a16.81,16.81,0,0,1-1.67-7C229.15,202.29,233.15,200,238,202.84Z"/>
          <path class="cls-12" d="M253.13,201.39a5.78,5.78,0,0,1,2.64,4.57l-.1,34.61c0,1.68-1.19,2.36-2.65,1.52l-30.13-17.4a5.83,5.83,0,0,1-2.64-4.57l.1-34.62c0-1.68,1.19-2.35,2.66-1.51ZM238,226.46c6.45,3.72,11.7.72,11.72-6.68s-5.2-16.44-11.64-20.16-11.7-.73-11.72,6.68,5.2,16.44,11.64,20.16"/>
          <path class="cls-10" d="M255.76,199.86l-30.12-17.4a1.89,1.89,0,0,0-1.89-.18l-2.63,1.53A1.89,1.89,0,0,1,223,184l30.12,17.4a5.78,5.78,0,0,1,2.64,4.57l-.1,34.61a1.83,1.83,0,0,1-.77,1.7l2.63-1.53a1.82,1.82,0,0,0,.77-1.69l.1-34.62A5.78,5.78,0,0,0,255.76,199.86Z"/>
        </g>
        <g>
          <path class="cls-8" d="M40.78,141a25.56,25.56,0,0,0,7.54,7l-3,1.76a25.59,25.59,0,0,1-7.55-7Z"/>
          <path class="cls-8" d="M34.86,124.68c0,5.35,2.33,11.45,5.92,16.32l-3,1.76c-3.58-4.87-5.94-11-5.92-16.32,0-4.25,1.52-7.25,4-8.66l3-1.76C36.38,117.43,34.87,120.43,34.86,124.68Z"/>
          <path class="cls-13" d="M37,119.85l3-1.76c-2.12,1.23-3.44,3.85-3.45,7.57,0,7.49,5.26,16.64,11.78,20.4l-3,1.76c-6.51-3.76-11.8-12.91-11.78-20.4C33.53,123.7,34.85,121.08,37,119.85Z"/>
          <polygon class="cls-8" points="40.35 135.85 43.38 134.09 43.37 136.04 40.34 137.8 40.35 135.85"/>
          <polygon class="cls-8" points="43.13 139.4 46.16 137.65 46.15 139.21 43.13 140.97 43.13 139.4"/>
          <polygon class="cls-8" points="40.34 137.8 43.37 136.04 46.16 137.65 43.13 139.4 40.34 137.8"/>
          <polygon class="cls-13" points="43.13 138.43 46.16 136.67 46.16 137.65 43.13 139.4 43.13 138.43"/>
          <path class="cls-8" d="M48.32,148c3.75,2.17,7.16,2.36,9.62.94l-3,1.76c-2.46,1.42-5.86,1.23-9.61-.94Z"/>
          <path class="cls-13" d="M56.73,146.88l-3,1.76c-2.15,1.25-5.13,1.08-8.41-.82l3-1.76C51.61,148,54.58,148.13,56.73,146.88Z"/>
          <path class="cls-8" d="M51.66,145l-3,1.76a2.26,2.26,0,0,1-2.29-.22A7.07,7.07,0,0,1,43.13,141l3-1.76a7.09,7.09,0,0,0,3.22,5.56A2.26,2.26,0,0,0,51.66,145Z"/>
          <polygon class="cls-13" points="44.83 140.38 47.85 138.62 47.85 140.19 44.82 141.95 44.83 140.38"/>
          <path class="cls-13" d="M50.46,142.93l-3,1.76a1.08,1.08,0,0,1-1.09-.11A3.36,3.36,0,0,1,44.82,142l3-1.76a3.36,3.36,0,0,0,1.52,2.63A1.08,1.08,0,0,0,50.46,142.93Z"/>
          <polygon class="cls-8" points="37.9 128.09 40.92 126.33 41.88 127.99 38.85 129.75 37.9 128.09"/>
          <polygon class="cls-13" points="44.83 139.41 47.86 137.65 47.85 138.62 44.83 140.38 44.83 139.41"/>
          <polygon class="cls-13" points="43.13 138.43 46.16 136.67 47.86 137.65 44.83 139.41 43.13 138.43"/>
          <path class="cls-8" d="M50.46,142.93l-3,1.76a1.08,1.08,0,0,0,.45-1l3-1.76A1.08,1.08,0,0,1,50.46,142.93Z"/>
          <polygon class="cls-8" points="47.88 142.15 50.91 140.39 50.9 141.95 47.88 143.71 47.88 142.15"/>
          <polygon class="cls-8" points="44.83 140.38 47.85 138.62 50.91 140.39 47.88 142.15 44.83 140.38"/>
          <polygon class="cls-13" points="37.9 128.09 40.92 126.33 42.32 125.54 39.29 127.3 37.9 128.09"/>
          <path class="cls-13" d="M51.66,145l-3,1.76a2.23,2.23,0,0,0,.94-2.06l3-1.76A2.23,2.23,0,0,1,51.66,145Z"/>
          <polygon class="cls-13" points="47.88 141.17 50.91 139.41 50.91 140.39 47.88 142.15 47.88 141.17"/>
          <polygon class="cls-13" points="49.58 143.13 52.6 141.37 52.6 142.93 49.57 144.69 49.58 143.13"/>
          <polygon class="cls-13" points="49.58 142.15 52.61 140.39 52.6 141.37 49.58 143.13 49.58 142.15"/>
          <polygon class="cls-13" points="47.88 141.17 50.91 139.41 52.61 140.39 49.58 142.15 47.88 141.17"/>
          <polygon class="cls-13" points="50.31 141.6 53.34 139.84 53.33 141.79 50.3 143.54 50.31 141.6"/>
          <polygon class="cls-13" points="40.35 135.85 43.38 134.09 53.34 139.84 50.31 141.6 40.35 135.85"/>
          <polygon class="cls-8" points="48.1 133.98 51.13 132.22 52.08 133.88 49.06 135.64 48.1 133.98"/>
          <polygon class="cls-8" points="50.45 134.85 53.48 133.09 54.86 135.49 51.83 137.25 50.45 134.85"/>
          <polygon class="cls-8" points="49.06 135.64 52.08 133.88 53.48 133.09 50.45 134.85 49.06 135.64"/>
          <polygon class="cls-13" points="49.49 133.19 52.52 131.43 53.48 133.09 50.45 134.85 49.49 133.19"/>
          <polygon class="cls-13" points="48.1 133.98 51.13 132.22 52.52 131.43 49.49 133.19 48.1 133.98"/>
          <polygon class="cls-8" points="48.11 130.79 51.14 129.03 52.52 131.43 49.49 133.19 48.11 130.79"/>
          <polygon class="cls-8" points="51.83 137.25 54.86 135.49 55.83 134.94 52.8 136.7 51.83 137.25"/>
          <polygon class="cls-13" points="51.41 134.3 54.44 132.54 55.83 134.94 52.8 136.7 51.41 134.3"/>
          <polygon class="cls-13" points="50.46 132.64 53.48 130.88 54.44 132.54 51.41 134.3 50.46 132.64"/>
          <polygon class="cls-13" points="49.07 130.24 52.1 128.48 53.48 130.88 50.46 132.64 49.07 130.24"/>
          <polygon class="cls-13" points="50.46 132.64 53.48 130.88 54.88 130.09 51.85 131.85 50.46 132.64"/>
          <polygon class="cls-13" points="48.11 130.79 51.14 129.03 52.1 128.48 49.07 130.24 48.11 130.79"/>
          <polygon class="cls-8" points="51.41 134.3 54.44 132.54 55.83 131.74 52.81 133.5 51.41 134.3"/>
          <polygon class="cls-13" points="51.85 131.85 54.88 130.09 55.83 131.74 52.81 133.5 51.85 131.85"/>
          <path class="cls-8" d="M59.51,134.35l-3,1.76c-1.62-6.19-6-12.49-11.11-15.45l3-1.75C53.53,121.86,57.9,128.16,59.51,134.35Z"/>
          <path class="cls-8" d="M45.38,120.66c6.52,3.77,11.8,12.92,11.78,20.41s-5.34,10.52-11.86,6.75-11.8-12.91-11.78-20.4S38.86,116.9,45.38,120.66Zm4.92,22.88V141.6l-10-5.75v2l2.79,1.6V141a7.07,7.07,0,0,0,3.21,5.56c1.78,1,3.23.2,3.23-1.84v-1.56l.72.41m2.5-6.84-1.39-2.4,1.4-.8-1-1.65-1.39.79-1.39-2.4-1,.55,1.38,2.4L48.1,134l1,1.66,1.39-.79,1.38,2.39,1-.54m-13.95-6.95,1.4-.8,1.38,2.4,1-.55-1.38-2.39,1.39-.8-1-1.66-1.39.8-1.38-2.4-1,.55,1.38,2.4-1.39.79,1,1.66"/>
          <path class="cls-8" d="M57.21,146.57a3.94,3.94,0,0,1-.48.31l-3,1.76a4.76,4.76,0,0,0,.47-.31Z"/>
          <path class="cls-8" d="M57.21,146.57l-.12.07-.38.22-.5.29-2,1.18c1.84-1.33,3-3.83,3-7.26h0l3-1.76h0C60.18,142.74,59.05,145.24,57.21,146.57Z"/>
          <path class="cls-8" d="M40,118.09c2.15-1.25,5.13-1.08,8.41.82l-3,1.75c-3.28-1.89-6.26-2.06-8.41-.81Z"/>
          <path class="cls-13" d="M35.78,117.78l3-1.76c2.46-1.43,5.86-1.23,9.61.93l-3,1.76C41.64,116.55,38.23,116.35,35.78,117.78Z"/>
          <path class="cls-8" d="M59.51,134.35a19.79,19.79,0,0,1,.68,5l-3,1.76a19.7,19.7,0,0,0-.67-5Z"/>
          <path class="cls-13" d="M57.94,149l-3,1.75c2.43-1.41,3.93-4.4,4-8.65,0-8.57-6-19-13.48-23.34l3-1.76c7.45,4.31,13.5,14.78,13.47,23.34C61.87,144.54,60.36,147.54,57.94,149Z"/>
          <path class="cls-14" d="M48.43,111.84c-5-2.88-9.52-3.15-12.79-1.25l-3,1.76c3.26-1.9,7.79-1.63,12.78,1.25,9.92,5.73,17.94,19.61,17.91,31,0,5.66-2,9.65-5.24,11.52l3-1.76c3.23-1.87,5.23-5.86,5.24-11.52C66.37,131.46,58.35,117.57,48.43,111.84Z"/>
          <path class="cls-8" d="M45.4,113.6c-9.92-5.73-18-1.13-18,10.27s8,25.29,17.91,31,18,1.13,18-10.27S55.32,119.33,45.4,113.6Zm12,34.53-.15.25a7.35,7.35,0,0,1-1.75,1.92,6.61,6.61,0,0,1-1,.62l-.24.11-.25.1-.38.14a7.39,7.39,0,0,1-2.19.35h-.74l-.29,0h0c-.4,0-.8-.12-1.21-.21l-.38-.1-.4-.11-.27-.09-.38-.13-.11,0-.55-.22-.15-.06-.19-.09-.33-.15c-.37-.18-.74-.38-1.12-.6a22.93,22.93,0,0,1-4.95-3.93l-.3-.33c-.2-.2-.38-.41-.57-.62l-.37-.42-.48-.58-.39-.49-.33-.44c-.54-.71-1-1.46-1.53-2.23-.26-.41-.51-.83-.75-1.25-.07-.12-.13-.24-.2-.35s-.27-.51-.4-.76-.32-.64-.48-1l-.25-.54-.19-.42c-.18-.41-.35-.83-.51-1.25l-.16-.42c-.15-.42-.3-.84-.43-1.26,0-.14-.09-.28-.14-.43l-.24-.84a26.44,26.44,0,0,1-.6-2.94,21.64,21.64,0,0,1-.2-2.87c0-.33,0-.66,0-1l0-.38a12.36,12.36,0,0,1,.19-1.43,3.4,3.4,0,0,1,.07-.34,9.84,9.84,0,0,1,.3-1.13c.08-.26.17-.5.27-.74a4.08,4.08,0,0,1,.19-.42c.15-.32.32-.62.49-.91s.21-.32.33-.47a6.39,6.39,0,0,1,.62-.74c.16-.16.32-.32.49-.46l.21-.17.21-.16.22-.15a4.25,4.25,0,0,1,.46-.27l.23-.12.24-.11.25-.11.51-.17a7.28,7.28,0,0,1,1.77-.3h.89l.43,0,.19,0,.27,0a10.58,10.58,0,0,1,1.17.24l.24.07.21.06.16.05.73.27.2.08a15.94,15.94,0,0,1,2,1A22.49,22.49,0,0,1,49.7,122l0,0c.52.5,1,1,1.51,1.59l.3.33.41.5.32.39.33.43c.23.31.46.61.68.93s.3.42.44.64.34.5.5.76a33.3,33.3,0,0,1,2.28,4.24l.31.72c.27.66.52,1.32.74,2s.36,1.13.51,1.69l.21.84q.1.42.18.84l.09.49c.07.38.12.76.17,1.14,0,.15,0,.31,0,.46a20.23,20.23,0,0,1,.11,2,12.12,12.12,0,0,1-1.43,6.08"/>
          <path class="cls-8" d="M44.83,140.38V142a1,1,0,0,0,0,.17v0c0,.11,0,.23.05.35v0c0,.08,0,.16.07.23l0,.07L45,143a3.14,3.14,0,0,0,.29.58,2.33,2.33,0,0,0,.17.26,1,1,0,0,0,.13.16,2.5,2.5,0,0,0,.27.29l.15.13.3.21.24.12.15.05.14,0h.2c.48,0,.8-.42.81-1.08v-1.56Z"/>
          <g>
            <polygon class="cls-6" points="38.87 124.35 40.25 126.75 41.21 128.41 42.59 130.8 41.63 131.35 40.24 128.96 39.29 127.3 37.91 124.9 38.87 124.35"/>
            <polygon class="cls-6" points="50.31 141.6 50.3 143.54 49.58 143.13 49.58 142.15 47.88 141.17 47.88 142.15 44.83 140.38 44.83 139.41 43.13 138.43 43.13 139.4 40.34 137.8 40.35 135.85 50.31 141.6"/>
            <polygon class="cls-6" points="41.65 125.95 42.6 127.61 41.21 128.41 40.25 126.75 41.65 125.95"/>
            <polygon class="cls-6" points="48.1 133.98 49.49 133.19 50.45 134.85 49.06 135.64 48.1 133.98"/>
            <polygon class="cls-6" points="49.07 130.24 50.46 132.64 51.41 134.3 52.8 136.7 51.83 137.25 50.45 134.85 49.49 133.19 48.11 130.79 49.07 130.24"/>
            <polygon class="cls-6" points="37.9 128.09 39.29 127.3 40.24 128.96 38.85 129.75 37.9 128.09"/>
            <path class="cls-6" d="M45.38,118.71c7.46,4.31,13.5,14.77,13.48,23.34s-6.11,12-13.56,7.72S31.8,135,31.83,126.44,37.93,114.41,45.38,118.71Zm-.08,29.11c6.52,3.77,11.84.73,11.86-6.75s-5.26-16.64-11.78-20.41-11.84-.73-11.86,6.76,5.27,16.64,11.78,20.4"/>
            <path class="cls-6" d="M49.58,142.15v2.54c0,2-1.45,2.87-3.23,1.84A7.07,7.07,0,0,1,43.13,141v-2.54l1.7,1V142a3.36,3.36,0,0,0,1.52,2.63c.85.49,1.53.1,1.54-.87v-2.54Z"/>
            <polygon class="cls-6" points="51.85 131.85 52.81 133.5 51.41 134.3 50.46 132.64 51.85 131.85"/>
          </g>
        </g>
      </g>
    </g>
  </g>
</svg>
