<svg xmlns="http://www.w3.org/2000/svg" viewBox="0 0 259.64 815.16">
  <defs>
    <style>
      .cls-1 {
        fill: #fde1d1;
      }

      .cls-2 {
        fill: #eeccbc;
      }

      .cls-3 {
        fill: #f1e6de;
      }

      .cls-4 {
        fill: #dcb3aa;
      }

      .cls-5 {
        fill: #fae0d5;
      }

      .cls-6 {
        fill: #6ab4dd;
      }

      .cls-7 {
        fill: #17223a;
      }

      .cls-8 {
        fill: #040a1f;
      }
    </style>
  </defs>
  <title>Asset 7</title>
  <g id="Layer_2" data-name="Layer 2">
    <g id="Capa_1" data-name="Capa 1">
      <polygon class="cls-1" points="105.59 815.16 0 743.71 0 213.29 105.59 284.75 105.59 815.16"/>
      <polyline class="cls-2" points="105.59 815.16 259.64 750.67 105.59 815.16 105.59 284.93 259.64 220.44 259.64 750.67"/>
      <polygon class="cls-3" points="0 213.29 154.26 148.81 259.64 220.44 105.59 284.93 0 213.29"/>
      <polygon class="cls-4" points="0 213.24 153.96 148.93 153.96 142.19 151.53 140.37 0 203.78 0 213.24"/>
      <polygon class="cls-5" points="0 203.78 153.96 139.35 156.64 141.17 2.65 205.57 0 203.78"/>
      <line class="cls-6" y1="203.78" x2="105.66" y2="275.46"/>
      <line class="cls-6" y1="203.78" x2="105.66" y2="275.46"/>
      <polygon class="cls-5" points="3.51 202.31 109.19 273.93 105.66 275.46 0 203.78 3.51 202.31"/>
      <polygon class="cls-2" points="259.64 210.98 153.96 139.35 153.96 148.93 259.64 220.44 259.64 210.98"/>
      <line class="cls-6" x1="150.45" y1="140.82" x2="256.11" y2="212.51"/>
      <line class="cls-6" x1="150.45" y1="140.82" x2="256.11" y2="212.51"/>
      <polygon class="cls-5" points="153.96 139.35 259.64 210.98 256.11 212.51 150.45 140.82 153.96 139.35"/>
      <polygon class="cls-4" points="105.66 284.93 259.64 220.44 259.64 210.98 105.66 275.46 105.66 284.93"/>
      <polygon class="cls-5" points="103.02 273.68 256.99 209.19 259.64 210.98 105.66 275.46 103.02 273.68"/>
      <polygon class="cls-2" points="105.66 275.46 0 203.82 0 213.28 105.66 284.93 105.66 275.46"/>
      <polygon class="cls-7" points="26.68 251.07 13.32 242.03 13.32 263.61 26.68 272.64 26.68 251.07"/>
      <polygon class="cls-8" points="15.49 243.5 13.32 242.03 13.32 263.61 15.49 265.08 15.49 243.5"/>
      <polygon class="cls-7" points="47.28 264.98 33.93 255.94 33.93 277.51 47.28 286.55 47.28 264.98"/>
      <polygon class="cls-8" points="36.1 257.41 33.93 255.94 33.93 277.51 36.1 278.98 36.1 257.41"/>
      <polygon class="cls-7" points="89.41 293.75 76.05 284.71 76.05 306.29 89.41 315.33 89.41 293.75"/>
      <polygon class="cls-8" points="78.23 286.19 76.05 284.71 76.05 306.29 78.23 307.75 78.23 286.19"/>
      <polygon class="cls-7" points="135.39 292.28 120.64 298.45 120.64 319.91 135.39 313.75 135.39 292.28"/>
      <polygon class="cls-8" points="133.84 292.93 133.84 314.4 135.39 313.75 135.39 292.28 133.84 292.93"/>
      <polygon class="cls-7" points="158.11 282.8 143.36 288.96 143.36 310.43 158.11 304.26 158.11 282.8"/>
      <polygon class="cls-8" points="156.57 283.44 156.57 304.91 158.11 304.26 158.11 282.8 156.57 283.44"/>
      <polygon class="cls-7" points="179.95 273.72 165.2 279.88 165.2 301.36 179.95 295.18 179.95 273.72"/>
      <polygon class="cls-8" points="178.41 274.37 178.41 295.83 179.95 295.18 179.95 273.72 178.41 274.37"/>
      <polygon class="cls-7" points="224.51 255.16 209.76 261.32 209.76 282.8 224.51 276.63 224.51 255.16"/>
      <polygon class="cls-8" points="222.97 255.81 222.97 277.27 224.51 276.63 224.51 255.16 222.97 255.81"/>
      <polygon class="cls-7" points="247.23 245.67 232.48 251.83 232.48 273.31 247.23 267.14 247.23 245.67"/>
      <polygon class="cls-8" points="245.69 246.32 245.69 267.79 247.23 267.14 247.23 245.67 245.69 246.32"/>
      <polygon class="cls-7" points="26.68 251.07 13.32 242.03 13.32 263.61 26.68 272.64 26.68 251.07"/>
      <polygon class="cls-8" points="15.49 243.5 13.32 242.03 13.32 263.61 15.49 265.08 15.49 243.5"/>
      <polygon class="cls-7" points="47.28 264.98 33.93 255.94 33.93 277.51 47.28 286.55 47.28 264.98"/>
      <polygon class="cls-8" points="36.1 257.41 33.93 255.94 33.93 277.51 36.1 278.98 36.1 257.41"/>
      <polygon class="cls-7" points="89.41 293.75 76.05 284.71 76.05 306.29 89.41 315.33 89.41 293.75"/>
      <polygon class="cls-8" points="78.23 286.19 76.05 284.71 76.05 306.29 78.23 307.75 78.23 286.19"/>
      <polygon class="cls-7" points="135.39 292.28 120.64 298.45 120.64 319.91 135.39 313.75 135.39 292.28"/>
      <polygon class="cls-8" points="133.84 292.93 133.84 314.4 135.39 313.75 135.39 292.28 133.84 292.93"/>
      <polygon class="cls-7" points="158.11 282.8 143.36 288.96 143.36 310.43 158.11 304.26 158.11 282.8"/>
      <polygon class="cls-8" points="156.57 283.44 156.57 304.91 158.11 304.26 158.11 282.8 156.57 283.44"/>
      <polygon class="cls-7" points="179.95 273.72 165.2 279.88 165.2 301.36 179.95 295.18 179.95 273.72"/>
      <polygon class="cls-8" points="178.41 274.37 178.41 295.83 179.95 295.18 179.95 273.72 178.41 274.37"/>
      <polygon class="cls-7" points="224.51 255.16 209.76 261.32 209.76 282.8 224.51 276.63 224.51 255.16"/>
      <polygon class="cls-8" points="222.97 255.81 222.97 277.27 224.51 276.63 224.51 255.16 222.97 255.81"/>
      <polygon class="cls-7" points="247.23 245.67 232.48 251.83 232.48 273.31 247.23 267.14 247.23 245.67"/>
      <polygon class="cls-8" points="245.69 246.32 245.69 267.79 247.23 267.14 247.23 245.67 245.69 246.32"/>
      <polygon class="cls-7" points="26.68 284.49 13.32 275.46 13.32 297.02 26.68 306.07 26.68 284.49"/>
      <polygon class="cls-8" points="15.49 276.92 13.32 275.46 13.32 297.02 15.49 298.49 15.49 276.92"/>
      <polygon class="cls-7" points="47.28 298.4 33.93 289.36 33.93 310.94 47.28 319.98 47.28 298.4"/>
      <polygon class="cls-8" points="36.1 290.84 33.93 289.36 33.93 310.94 36.1 312.4 36.1 290.84"/>
      <polygon class="cls-7" points="89.41 327.18 76.05 318.14 76.05 339.7 89.41 348.75 89.41 327.18"/>
      <polygon class="cls-8" points="78.23 319.6 76.05 318.14 76.05 339.7 78.23 341.18 78.23 319.6"/>
      <polygon class="cls-7" points="135.39 325.71 120.64 331.87 120.64 353.34 135.39 347.18 135.39 325.71"/>
      <polygon class="cls-8" points="133.84 326.35 133.84 347.81 135.39 347.18 135.39 325.71 133.84 326.35"/>
      <polygon class="cls-7" points="158.11 316.21 143.36 322.39 143.36 343.85 158.11 337.69 158.11 316.21"/>
      <polygon class="cls-8" points="156.57 316.86 156.57 338.33 158.11 337.69 158.11 316.21 156.57 316.86"/>
      <polygon class="cls-7" points="179.95 307.15 165.2 313.31 165.2 334.78 179.95 328.61 179.95 307.15"/>
      <polygon class="cls-8" points="178.41 307.79 178.41 329.25 179.95 328.61 179.95 307.15 178.41 307.79"/>
      <polygon class="cls-7" points="224.51 288.58 209.76 294.75 209.76 316.21 224.51 310.05 224.51 288.58"/>
      <polygon class="cls-8" points="222.97 289.22 222.97 310.69 224.51 310.05 224.51 288.58 222.97 289.22"/>
      <polygon class="cls-7" points="247.23 279.1 232.48 285.26 232.48 306.73 247.23 300.56 247.23 279.1"/>
      <polygon class="cls-8" points="245.69 279.74 245.69 301.21 247.23 300.56 247.23 279.1 245.69 279.74"/>
      <polygon class="cls-7" points="26.68 317.92 13.32 308.87 13.32 330.44 26.68 339.48 26.68 317.92"/>
      <polygon class="cls-8" points="15.49 310.34 13.32 308.87 13.32 330.44 15.49 331.92 15.49 310.34"/>
      <polygon class="cls-7" points="47.28 331.83 33.93 322.78 33.93 344.36 47.28 353.4 47.28 331.83"/>
      <polygon class="cls-8" points="36.1 324.25 33.93 322.78 33.93 344.36 36.1 345.83 36.1 324.25"/>
      <polygon class="cls-7" points="89.41 360.6 76.05 351.57 76.05 373.13 89.41 382.17 89.41 360.6"/>
      <polygon class="cls-8" points="78.23 353.03 76.05 351.57 76.05 373.13 78.23 374.6 78.23 353.03"/>
      <polygon class="cls-7" points="135.39 359.13 120.64 365.29 120.64 386.77 135.39 380.59 135.39 359.13"/>
      <polygon class="cls-8" points="133.84 359.78 133.84 381.24 135.39 380.59 135.39 359.13 133.84 359.78"/>
      <polygon class="cls-7" points="158.11 349.64 143.36 355.8 143.36 377.28 158.11 371.11 158.11 349.64"/>
      <polygon class="cls-8" points="156.57 350.29 156.57 371.76 158.11 371.11 158.11 349.64 156.57 350.29"/>
      <polygon class="cls-7" points="179.95 340.56 165.2 346.73 165.2 368.2 179.95 362.04 179.95 340.56"/>
      <polygon class="cls-8" points="178.41 341.21 178.41 362.68 179.95 362.04 179.95 340.56 178.41 341.21"/>
      <polygon class="cls-7" points="224.51 322 209.76 328.17 209.76 349.64 224.51 343.48 224.51 322"/>
      <polygon class="cls-8" points="222.97 322.65 222.97 344.12 224.51 343.48 224.51 322 222.97 322.65"/>
      <polygon class="cls-7" points="247.23 312.51 232.48 318.68 232.48 340.16 247.23 333.98 247.23 312.51"/>
      <polygon class="cls-8" points="245.69 313.16 245.69 334.63 247.23 333.98 247.23 312.51 245.69 313.16"/>
      <polygon class="cls-7" points="26.68 351.34 13.32 342.3 13.32 363.87 26.68 372.91 26.68 351.34"/>
      <polygon class="cls-8" points="15.49 343.77 13.32 342.3 13.32 363.87 15.49 365.34 15.49 343.77"/>
      <polygon class="cls-7" points="47.28 365.24 33.93 356.21 33.93 377.78 47.28 386.82 47.28 365.24"/>
      <polygon class="cls-8" points="36.1 357.68 33.93 356.21 33.93 377.78 36.1 379.25 36.1 357.68"/>
      <polygon class="cls-7" points="89.41 394.02 76.05 384.98 76.05 406.56 89.41 415.59 89.41 394.02"/>
      <polygon class="cls-8" points="78.23 386.45 76.05 384.98 76.05 406.56 78.23 408.03 78.23 386.45"/>
      <polygon class="cls-7" points="135.39 392.55 120.64 398.72 120.64 420.18 135.39 414.02 135.39 392.55"/>
      <polygon class="cls-8" points="133.84 393.19 133.84 414.66 135.39 414.02 135.39 392.55 133.84 393.19"/>
      <polygon class="cls-7" points="158.11 383.07 143.36 389.23 143.36 410.7 158.11 404.53 158.11 383.07"/>
      <polygon class="cls-8" points="156.57 383.71 156.57 405.18 158.11 404.53 158.11 383.07 156.57 383.71"/>
      <polygon class="cls-7" points="179.95 373.99 165.2 380.16 165.2 401.63 179.95 395.46 179.95 373.99"/>
      <polygon class="cls-8" points="178.41 374.63 178.41 396.11 179.95 395.46 179.95 373.99 178.41 374.63"/>
      <polygon class="cls-7" points="224.51 355.43 209.76 361.59 209.76 383.07 224.51 376.89 224.51 355.43"/>
      <polygon class="cls-8" points="222.97 356.07 222.97 377.54 224.51 376.89 224.51 355.43 222.97 356.07"/>
      <polygon class="cls-7" points="247.23 345.94 232.48 352.11 232.48 373.57 247.23 367.41 247.23 345.94"/>
      <polygon class="cls-8" points="245.69 346.58 245.69 368.06 247.23 367.41 247.23 345.94 245.69 346.58"/>
      <polygon class="cls-7" points="26.68 384.76 13.32 375.72 13.32 397.3 26.68 406.34 26.68 384.76"/>
      <polygon class="cls-8" points="15.49 377.19 13.32 375.72 13.32 397.3 15.49 398.76 15.49 377.19"/>
      <polygon class="cls-7" points="47.28 398.67 33.93 389.63 33.93 411.21 47.28 420.24 47.28 398.67"/>
      <polygon class="cls-8" points="36.1 391.11 33.93 389.63 33.93 411.21 36.1 412.67 36.1 391.11"/>
      <polygon class="cls-7" points="89.41 427.44 76.05 418.41 76.05 439.98 89.41 449.02 89.41 427.44"/>
      <polygon class="cls-8" points="78.23 419.87 76.05 418.41 76.05 439.98 78.23 441.45 78.23 419.87"/>
      <polygon class="cls-7" points="135.39 425.97 120.64 432.14 120.64 453.61 135.39 447.44 135.39 425.97"/>
      <polygon class="cls-8" points="133.84 426.62 133.84 448.09 135.39 447.44 135.39 425.97 133.84 426.62"/>
      <polygon class="cls-7" points="158.11 416.48 143.36 422.65 143.36 444.13 158.11 437.95 158.11 416.48"/>
      <polygon class="cls-8" points="156.57 417.13 156.57 438.6 158.11 437.95 158.11 416.48 156.57 417.13"/>
      <polygon class="cls-7" points="179.95 407.41 165.2 413.58 165.2 435.05 179.95 428.88 179.95 407.41"/>
      <polygon class="cls-8" points="178.41 408.06 178.41 429.52 179.95 428.88 179.95 407.41 178.41 408.06"/>
      <polygon class="cls-7" points="224.51 388.84 209.76 395.02 209.76 416.49 224.51 410.32 224.51 388.84"/>
      <polygon class="cls-8" points="222.97 389.49 222.97 410.96 224.51 410.32 224.51 388.84 222.97 389.49"/>
      <polygon class="cls-7" points="247.23 379.36 232.48 385.53 232.48 407 247.23 400.83 247.23 379.36"/>
      <polygon class="cls-8" points="245.69 380.01 245.69 401.47 247.23 400.83 247.23 379.36 245.69 380.01"/>
      <polygon class="cls-7" points="26.68 418.19 13.32 409.14 13.32 430.71 26.68 439.76 26.68 418.19"/>
      <polygon class="cls-8" points="15.49 410.61 13.32 409.14 13.32 430.71 15.49 432.18 15.49 410.61"/>
      <polygon class="cls-7" points="47.28 432.09 33.93 423.06 33.93 444.62 47.28 453.67 47.28 432.09"/>
      <polygon class="cls-8" points="36.1 424.52 33.93 423.06 33.93 444.62 36.1 446.09 36.1 424.52"/>
      <polygon class="cls-7" points="89.41 460.87 76.05 451.83 76.05 473.4 89.41 482.43 89.41 460.87"/>
      <polygon class="cls-8" points="78.23 453.3 76.05 451.83 76.05 473.4 78.23 474.87 78.23 453.3"/>
      <polygon class="cls-7" points="135.39 459.4 120.64 465.56 120.64 487.04 135.39 480.86 135.39 459.4"/>
      <polygon class="cls-8" points="133.84 460.04 133.84 481.51 135.39 480.86 135.39 459.4 133.84 460.04"/>
      <polygon class="cls-7" points="158.11 449.91 143.36 456.08 143.36 477.54 158.11 471.38 158.11 449.91"/>
      <polygon class="cls-8" points="156.57 450.55 156.57 472.03 158.11 471.38 158.11 449.91 156.57 450.55"/>
      <polygon class="cls-7" points="179.95 440.83 165.2 447 165.2 468.46 179.95 462.31 179.95 440.83"/>
      <polygon class="cls-8" points="178.41 441.48 178.41 462.95 179.95 462.31 179.95 440.83 178.41 441.48"/>
      <polygon class="cls-7" points="224.51 422.27 209.76 428.44 209.76 449.91 224.51 443.75 224.51 422.27"/>
      <polygon class="cls-8" points="222.97 422.92 222.97 444.39 224.51 443.75 224.51 422.27 222.97 422.92"/>
      <polygon class="cls-7" points="247.23 412.78 232.48 418.95 232.48 440.43 247.23 434.25 247.23 412.78"/>
      <polygon class="cls-8" points="245.69 413.43 245.69 434.9 247.23 434.25 247.23 412.78 245.69 413.43"/>
      <polygon class="cls-7" points="26.68 451.6 13.32 442.56 13.32 464.14 26.68 473.18 26.68 451.6"/>
      <polygon class="cls-8" points="15.49 444.04 13.32 442.56 13.32 464.14 15.49 465.61 15.49 444.04"/>
      <polygon class="cls-7" points="47.28 465.52 33.93 456.47 33.93 478.05 47.28 487.09 47.28 465.52"/>
      <polygon class="cls-8" points="36.1 457.94 33.93 456.47 33.93 478.05 36.1 479.52 36.1 457.94"/>
      <polygon class="cls-7" points="89.41 494.29 76.05 485.25 76.05 506.82 89.41 515.86 89.41 494.29"/>
      <polygon class="cls-8" points="78.23 486.72 76.05 485.25 76.05 506.82 78.23 508.3 78.23 486.72"/>
      <polygon class="cls-7" points="135.39 492.81 120.64 498.99 120.64 520.46 135.39 514.29 135.39 492.81"/>
      <polygon class="cls-8" points="133.84 493.46 133.84 514.93 135.39 514.29 135.39 492.81 133.84 493.46"/>
      <polygon class="cls-7" points="158.11 483.33 143.36 489.5 143.36 510.97 158.11 504.8 158.11 483.33"/>
      <polygon class="cls-8" points="156.57 483.98 156.57 505.44 158.11 504.8 158.11 483.33 156.57 483.98"/>
      <polygon class="cls-7" points="179.95 474.25 165.2 480.43 165.2 501.89 179.95 495.73 179.95 474.25"/>
      <polygon class="cls-8" points="178.41 474.9 178.41 496.38 179.95 495.73 179.95 474.25 178.41 474.9"/>
      <polygon class="cls-7" points="224.51 455.69 209.76 461.86 209.76 483.33 224.51 477.16 224.51 455.69"/>
      <polygon class="cls-8" points="222.97 456.34 222.97 477.81 224.51 477.16 224.51 455.69 222.97 456.34"/>
      <polygon class="cls-7" points="247.23 446.21 232.48 452.38 232.48 473.84 247.23 467.68 247.23 446.21"/>
      <polygon class="cls-8" points="245.69 446.85 245.69 468.32 247.23 467.68 247.23 446.21 245.69 446.85"/>
      <polygon class="cls-7" points="26.68 485.03 13.32 475.99 13.32 497.56 26.68 506.6 26.68 485.03"/>
      <polygon class="cls-8" points="15.49 477.46 13.32 475.99 13.32 497.56 15.49 499.03 15.49 477.46"/>
      <polygon class="cls-7" points="47.28 498.94 33.93 489.9 33.93 511.47 47.28 520.51 47.28 498.94"/>
      <polygon class="cls-8" points="36.1 491.37 33.93 489.9 33.93 511.47 36.1 512.95 36.1 491.37"/>
      <polygon class="cls-7" points="89.41 527.71 76.05 518.68 76.05 540.25 89.41 549.28 89.41 527.71"/>
      <polygon class="cls-8" points="78.23 520.15 76.05 518.68 76.05 540.25 78.23 541.72 78.23 520.15"/>
      <polygon class="cls-7" points="135.39 526.24 120.64 532.41 120.64 553.88 135.39 547.71 135.39 526.24"/>
      <polygon class="cls-8" points="133.84 526.89 133.84 548.36 135.39 547.71 135.39 526.24 133.84 526.89"/>
      <polygon class="cls-7" points="158.11 516.75 143.36 522.92 143.36 544.39 158.11 538.22 158.11 516.75"/>
      <polygon class="cls-8" points="156.57 517.4 156.57 538.87 158.11 538.22 158.11 516.75 156.57 517.4"/>
      <polygon class="cls-7" points="179.95 507.68 165.2 513.84 165.2 535.32 179.95 529.14 179.95 507.68"/>
      <polygon class="cls-8" points="178.41 508.32 178.41 529.79 179.95 529.14 179.95 507.68 178.41 508.32"/>
      <polygon class="cls-7" points="224.51 489.12 209.76 495.29 209.76 516.76 224.51 510.59 224.51 489.12"/>
      <polygon class="cls-8" points="222.97 489.77 222.97 511.23 224.51 510.59 224.51 489.12 222.97 489.77"/>
      <polygon class="cls-7" points="247.23 479.63 232.48 485.79 232.48 507.27 247.23 501.11 247.23 479.63"/>
      <polygon class="cls-8" points="245.69 480.28 245.69 501.74 247.23 501.11 247.23 479.63 245.69 480.28"/>
      <polygon class="cls-7" points="26.68 518.45 13.32 509.41 13.32 530.99 26.68 540.03 26.68 518.45"/>
      <polygon class="cls-8" points="15.49 510.88 13.32 509.41 13.32 530.99 15.49 532.45 15.49 510.88"/>
      <polygon class="cls-7" points="47.28 532.36 33.93 523.32 33.93 544.9 47.28 553.94 47.28 532.36"/>
      <polygon class="cls-8" points="36.1 524.78 33.93 523.32 33.93 544.9 36.1 546.37 36.1 524.78"/>
      <polygon class="cls-7" points="89.41 561.14 76.05 552.1 76.05 573.68 89.41 582.71 89.41 561.14"/>
      <polygon class="cls-8" points="78.23 553.57 76.05 552.1 76.05 573.68 78.23 575.14 78.23 553.57"/>
      <polygon class="cls-7" points="135.39 559.66 120.64 565.83 120.64 587.3 135.39 581.13 135.39 559.66"/>
      <polygon class="cls-8" points="133.84 560.31 133.84 581.77 135.39 581.13 135.39 559.66 133.84 560.31"/>
      <polygon class="cls-7" points="158.11 550.18 143.36 556.35 143.36 577.81 158.11 571.65 158.11 550.18"/>
      <polygon class="cls-8" points="156.57 550.82 156.57 572.29 158.11 571.65 158.11 550.18 156.57 550.82"/>
      <polygon class="cls-7" points="179.95 541.11 165.2 547.27 165.2 568.74 179.95 562.57 179.95 541.11"/>
      <polygon class="cls-8" points="178.41 541.75 178.41 563.22 179.95 562.57 179.95 541.11 178.41 541.75"/>
      <polygon class="cls-7" points="224.51 522.54 209.76 528.71 209.76 550.18 224.51 544.01 224.51 522.54"/>
      <polygon class="cls-8" points="222.97 523.18 222.97 544.66 224.51 544.01 224.51 522.54 222.97 523.18"/>
      <polygon class="cls-7" points="247.23 513.05 232.48 519.22 232.48 540.69 247.23 534.52 247.23 513.05"/>
      <polygon class="cls-8" points="245.69 513.7 245.69 535.16 247.23 534.52 247.23 513.05 245.69 513.7"/>
      <polygon class="cls-7" points="26.68 551.88 13.32 542.84 13.32 564.41 26.68 573.44 26.68 551.88"/>
      <polygon class="cls-8" points="15.49 544.3 13.32 542.84 13.32 564.41 15.49 565.88 15.49 544.3"/>
      <polygon class="cls-7" points="47.28 565.79 33.93 556.75 33.93 578.31 47.28 587.35 47.28 565.79"/>
      <polygon class="cls-8" points="36.1 558.21 33.93 556.75 33.93 578.31 36.1 579.78 36.1 558.21"/>
      <polygon class="cls-7" points="89.41 594.55 76.05 585.52 76.05 607.09 89.41 616.14 89.41 594.55"/>
      <polygon class="cls-8" points="78.23 586.99 76.05 585.52 76.05 607.09 78.23 608.56 78.23 586.99"/>
      <polygon class="cls-7" points="135.39 593.09 120.64 599.25 120.64 620.73 135.39 614.55 135.39 593.09"/>
      <polygon class="cls-8" points="133.84 593.73 133.84 615.2 135.39 614.55 135.39 593.09 133.84 593.73"/>
      <polygon class="cls-7" points="158.11 583.6 143.36 589.76 143.36 611.23 158.11 605.07 158.11 583.6"/>
      <polygon class="cls-8" points="156.57 584.25 156.57 605.71 158.11 605.07 158.11 583.6 156.57 584.25"/>
      <polygon class="cls-7" points="179.95 574.52 165.2 580.7 165.2 602.16 179.95 596 179.95 574.52"/>
      <polygon class="cls-8" points="178.41 575.17 178.41 596.64 179.95 596 179.95 574.52 178.41 575.17"/>
      <polygon class="cls-7" points="224.51 555.97 209.76 562.14 209.76 583.6 224.51 577.44 224.51 555.97"/>
      <polygon class="cls-8" points="222.97 556.61 222.97 578.08 224.51 577.44 224.51 555.97 222.97 556.61"/>
      <polygon class="cls-7" points="247.23 546.47 232.48 552.64 232.48 574.11 247.23 567.95 247.23 546.47"/>
      <polygon class="cls-8" points="245.69 547.12 245.69 568.59 247.23 567.95 247.23 546.47 245.69 547.12"/>
      <polygon class="cls-7" points="26.68 585.29 13.32 576.26 13.32 597.83 26.68 606.87 26.68 585.29"/>
      <polygon class="cls-8" points="15.49 577.73 13.32 576.26 13.32 597.83 15.49 599.3 15.49 577.73"/>
      <polygon class="cls-7" points="47.28 599.2 33.93 590.16 33.93 611.74 47.28 620.78 47.28 599.2"/>
      <polygon class="cls-8" points="36.1 591.64 33.93 590.16 33.93 611.74 36.1 613.21 36.1 591.64"/>
      <polygon class="cls-7" points="89.41 627.98 76.05 618.94 76.05 640.52 89.41 649.55 89.41 627.98"/>
      <polygon class="cls-8" points="78.23 620.41 76.05 618.94 76.05 640.52 78.23 641.99 78.23 620.41"/>
      <polygon class="cls-7" points="135.39 626.51 120.64 632.68 120.64 654.14 135.39 647.98 135.39 626.51"/>
      <polygon class="cls-8" points="133.84 627.15 133.84 648.63 135.39 647.98 135.39 626.51 133.84 627.15"/>
      <polygon class="cls-7" points="158.11 617.02 143.36 623.19 143.36 644.66 158.11 638.49 158.11 617.02"/>
      <polygon class="cls-8" points="156.57 617.67 156.57 639.13 158.11 638.49 158.11 617.02 156.57 617.67"/>
      <polygon class="cls-7" points="179.95 607.95 165.2 614.11 165.2 635.58 179.95 629.42 179.95 607.95"/>
      <polygon class="cls-8" points="178.41 608.59 178.41 630.07 179.95 629.42 179.95 607.95 178.41 608.59"/>
      <polygon class="cls-7" points="224.51 589.39 209.76 595.55 209.76 617.02 224.51 610.85 224.51 589.39"/>
      <polygon class="cls-8" points="222.97 590.03 222.97 611.5 224.51 610.85 224.51 589.39 222.97 590.03"/>
      <polygon class="cls-7" points="247.23 579.9 232.48 586.07 232.48 607.53 247.23 601.37 247.23 579.9"/>
      <polygon class="cls-8" points="245.69 580.54 245.69 602.02 247.23 601.37 247.23 579.9 245.69 580.54"/>
      <polygon class="cls-7" points="26.68 618.72 13.32 609.68 13.32 631.26 26.68 640.29 26.68 618.72"/>
      <polygon class="cls-8" points="15.49 611.16 13.32 609.68 13.32 631.26 15.49 632.73 15.49 611.16"/>
      <polygon class="cls-7" points="47.28 632.63 33.93 623.59 33.93 645.16 47.28 654.2 47.28 632.63"/>
      <polygon class="cls-8" points="36.1 625.06 33.93 623.59 33.93 645.16 36.1 646.64 36.1 625.06"/>
      <polygon class="cls-7" points="89.41 661.41 76.05 652.37 76.05 673.94 89.41 682.98 89.41 661.41"/>
      <polygon class="cls-8" points="78.23 653.84 76.05 652.37 76.05 673.94 78.23 675.4 78.23 653.84"/>
      <polygon class="cls-7" points="135.39 659.93 120.64 666.11 120.64 687.57 135.39 681.41 135.39 659.93"/>
      <polygon class="cls-8" points="133.84 660.58 133.84 682.05 135.39 681.41 135.39 659.93 133.84 660.58"/>
      <polygon class="cls-7" points="158.11 650.44 143.36 656.61 143.36 678.08 158.11 671.91 158.11 650.44"/>
      <polygon class="cls-8" points="156.57 651.09 156.57 672.56 158.11 671.91 158.11 650.44 156.57 651.09"/>
      <polygon class="cls-7" points="179.95 641.38 165.2 647.53 165.2 669.01 179.95 662.84 179.95 641.38"/>
      <polygon class="cls-8" points="178.41 642.02 178.41 663.48 179.95 662.84 179.95 641.38 178.41 642.02"/>
      <polygon class="cls-7" points="224.51 622.82 209.76 628.98 209.76 650.44 224.51 644.28 224.51 622.82"/>
      <polygon class="cls-8" points="222.97 623.46 222.97 644.92 224.51 644.28 224.51 622.82 222.97 623.46"/>
      <polygon class="cls-7" points="247.23 613.32 232.48 619.48 232.48 640.96 247.23 634.78 247.23 613.32"/>
      <polygon class="cls-8" points="245.69 613.97 245.69 635.43 247.23 634.78 247.23 613.32 245.69 613.97"/>
      <polygon class="cls-7" points="26.68 652.14 13.32 643.11 13.32 664.67 26.68 673.71 26.68 652.14"/>
      <polygon class="cls-8" points="15.49 644.57 13.32 643.11 13.32 664.67 15.49 666.14 15.49 644.57"/>
      <polygon class="cls-7" points="47.28 666.05 33.93 657.02 33.93 678.59 47.28 687.63 47.28 666.05"/>
      <polygon class="cls-8" points="36.1 658.49 33.93 657.02 33.93 678.59 36.1 680.05 36.1 658.49"/>
      <polygon class="cls-7" points="89.41 694.83 76.05 685.79 76.05 707.36 89.41 716.41 89.41 694.83"/>
      <polygon class="cls-8" points="78.23 687.25 76.05 685.79 76.05 707.36 78.23 708.83 78.23 687.25"/>
      <polygon class="cls-7" points="135.39 693.36 120.64 699.52 120.64 720.99 135.39 714.82 135.39 693.36"/>
      <polygon class="cls-8" points="133.84 694 133.84 715.47 135.39 714.82 135.39 693.36 133.84 694"/>
      <polygon class="cls-7" points="158.11 683.87 143.36 690.04 143.36 711.5 158.11 705.34 158.11 683.87"/>
      <polygon class="cls-8" points="156.57 684.51 156.57 705.98 158.11 705.34 158.11 683.87 156.57 684.51"/>
      <polygon class="cls-7" points="179.95 674.8 165.2 680.96 165.2 702.43 179.95 696.26 179.95 674.8"/>
      <polygon class="cls-8" points="178.41 675.45 178.41 696.91 179.95 696.26 179.95 674.8 178.41 675.45"/>
      <polygon class="cls-7" points="224.51 656.23 209.76 662.4 209.76 683.87 224.51 677.7 224.51 656.23"/>
      <polygon class="cls-8" points="222.97 656.88 222.97 678.35 224.51 677.7 224.51 656.23 222.97 656.88"/>
      <polygon class="cls-7" points="247.23 646.75 232.48 652.91 232.48 674.39 247.23 668.21 247.23 646.75"/>
      <polygon class="cls-8" points="245.69 647.38 245.69 668.86 247.23 668.21 247.23 646.75 245.69 647.38"/>
      <polygon class="cls-7" points="26.68 685.57 13.32 676.52 13.32 698.1 26.68 707.14 26.68 685.57"/>
      <polygon class="cls-8" points="15.49 678 13.32 676.52 13.32 698.1 15.49 699.57 15.49 678"/>
      <polygon class="cls-7" points="47.28 699.47 33.93 690.43 33.93 712.01 47.28 721.05 47.28 699.47"/>
      <polygon class="cls-8" points="36.1 691.91 33.93 690.43 33.93 712.01 36.1 713.48 36.1 691.91"/>
      <polygon class="cls-7" points="89.41 728.26 76.05 719.21 76.05 740.78 89.41 749.82 89.41 728.26"/>
      <polygon class="cls-8" points="78.23 720.68 76.05 719.21 76.05 740.78 78.23 742.25 78.23 720.68"/>
      <polygon class="cls-7" points="135.39 726.78 120.64 732.95 120.64 754.42 135.39 748.25 135.39 726.78"/>
      <polygon class="cls-8" points="133.84 727.43 133.84 748.89 135.39 748.25 135.39 726.78 133.84 727.43"/>
      <polygon class="cls-7" points="158.11 717.29 143.36 723.45 143.36 744.93 158.11 738.75 158.11 717.29"/>
      <polygon class="cls-8" points="156.57 717.94 156.57 739.4 158.11 738.75 158.11 717.29 156.57 717.94"/>
      <polygon class="cls-7" points="179.95 708.22 165.2 714.39 165.2 735.85 179.95 729.69 179.95 708.22"/>
      <polygon class="cls-8" points="178.41 708.86 178.41 730.33 179.95 729.69 179.95 708.22 178.41 708.86"/>
      <polygon class="cls-7" points="224.51 689.66 209.76 695.82 209.76 717.29 224.51 711.13 224.51 689.66"/>
      <polygon class="cls-8" points="222.97 690.3 222.97 711.77 224.51 711.13 224.51 689.66 222.97 690.3"/>
      <polygon class="cls-7" points="247.23 680.16 232.48 686.34 232.48 707.8 247.23 701.64 247.23 680.16"/>
      <polygon class="cls-8" points="245.69 680.81 245.69 702.28 247.23 701.64 247.23 680.16 245.69 680.81"/>
      <polygon class="cls-7" points="26.68 718.99 13.32 709.95 13.32 731.52 26.68 740.56 26.68 718.99"/>
      <polygon class="cls-8" points="15.49 711.42 13.32 709.95 13.32 731.52 15.49 733 15.49 711.42"/>
      <polygon class="cls-7" points="47.28 732.89 33.93 723.86 33.93 745.43 47.28 754.47 47.28 732.89"/>
      <polygon class="cls-8" points="36.1 725.33 33.93 723.86 33.93 745.43 36.1 746.91 36.1 725.33"/>
      <polygon class="cls-7" points="89.41 761.67 76.05 752.63 76.05 774.21 89.41 783.25 89.41 761.67"/>
      <polygon class="cls-8" points="78.23 754.11 76.05 752.63 76.05 774.21 78.23 775.68 78.23 754.11"/>
      <polygon class="cls-7" points="135.39 760.2 120.64 766.37 120.64 787.84 135.39 781.67 135.39 760.2"/>
      <polygon class="cls-8" points="133.84 760.84 133.84 782.32 135.39 781.67 135.39 760.2 133.84 760.84"/>
      <polygon class="cls-7" points="158.11 750.72 143.36 756.88 143.36 778.36 158.11 772.18 158.11 750.72"/>
      <polygon class="cls-8" points="156.57 751.36 156.57 772.83 158.11 772.18 158.11 750.72 156.57 751.36"/>
      <polygon class="cls-7" points="179.95 741.64 165.2 747.81 165.2 769.28 179.95 763.11 179.95 741.64"/>
      <polygon class="cls-8" points="178.41 742.28 178.41 763.76 179.95 763.11 179.95 741.64 178.41 742.28"/>
      <polygon class="cls-7" points="224.51 723.08 209.76 729.25 209.76 750.72 224.51 744.55 224.51 723.08"/>
      <polygon class="cls-8" points="222.97 723.73 222.97 745.19 224.51 744.55 224.51 723.08 222.97 723.73"/>
      <polygon class="cls-7" points="247.23 713.59 232.48 719.75 232.48 741.23 247.23 735.05 247.23 713.59"/>
      <polygon class="cls-8" points="245.69 714.23 245.69 735.71 247.23 735.05 247.23 713.59 245.69 714.23"/>
      <polygon class="cls-2" points="191.82 810.23 161.3 789.57 161.3 744.3 191.82 764.96 191.82 810.23"/>
      <polyline class="cls-4" points="191.82 810.23 236.37 791.58 191.82 810.23 191.82 765.01 236.37 746.37 236.37 791.58"/>
      <polygon class="cls-5" points="161.36 744.3 205.9 725.65 236.37 746.37 191.82 765.01 161.36 744.3"/>
      <polygon class="cls-7" points="227.88 756.4 200.32 767.97 200.32 806.67 227.88 795.13 227.88 756.4"/>
      <polygon class="cls-8" points="224.88 757.65 224.88 796.38 227.88 795.13 227.88 756.4 224.88 757.65"/>
      <polygon class="cls-1" points="107.29 262.88 41.25 218.19 41.25 46.25 107.29 90.94 107.29 262.88"/>
      <polyline class="cls-2" points="107.29 262.88 203.66 222.54 107.29 262.88 107.29 91.06 203.66 50.73 203.66 222.54"/>
      <polygon class="cls-3" points="41.25 46.25 137.74 5.91 203.66 50.73 107.29 91.06 41.25 46.25"/>
      <polygon class="cls-4" points="41.25 46.22 137.55 5.99 137.55 1.77 136.03 0.63 41.25 40.3 41.25 46.22"/>
      <polygon class="cls-5" points="41.25 40.3 137.55 0 139.23 1.13 42.9 41.41 41.25 40.3"/>
      <line class="cls-6" x1="41.25" y1="40.3" x2="107.34" y2="85.14"/>
      <line class="cls-6" x1="41.25" y1="40.3" x2="107.34" y2="85.14"/>
      <polygon class="cls-5" points="43.44 39.38 109.56 84.19 107.34 85.14 41.25 40.3 43.44 39.38"/>
      <polygon class="cls-2" points="203.66 44.8 137.55 0 137.55 5.99 203.66 50.73 203.66 44.8"/>
      <line class="cls-6" x1="135.36" y1="0.92" x2="201.45" y2="45.76"/>
      <line class="cls-6" x1="135.36" y1="0.92" x2="201.45" y2="45.76"/>
      <polygon class="cls-5" points="137.55 0 203.66 44.8 201.45 45.76 135.36 0.92 137.55 0"/>
      <polygon class="cls-4" points="107.34 91.06 203.66 50.73 203.66 44.8 107.34 85.14 107.34 91.06"/>
      <polygon class="cls-5" points="105.69 84.02 202 43.68 203.66 44.8 107.34 85.14 105.69 84.02"/>
      <polygon class="cls-2" points="107.34 85.14 41.25 40.32 41.25 46.25 107.34 91.06 107.34 85.14"/>
      <polygon class="cls-2" points="85.94 57.08 70.85 46.87 70.85 41.74 85.94 51.96 85.94 57.08"/>
      <polyline class="cls-4" points="85.94 57.08 107.95 47.87 85.94 57.08 85.94 51.98 107.95 42.77 107.95 47.87"/>
      <polygon class="cls-5" points="70.87 41.74 92.89 32.52 107.95 42.77 85.94 51.98 70.87 41.74"/>
      <polygon class="cls-2" points="112.05 74.54 96.96 64.33 96.96 59.2 112.05 69.41 112.05 74.54"/>
      <polyline class="cls-4" points="112.05 74.54 134.07 65.32 112.05 74.54 112.05 69.43 134.07 60.22 134.07 65.32"/>
      <polygon class="cls-5" points="96.99 59.2 119.01 49.98 134.07 60.22 112.05 69.43 96.99 59.2"/>
      <polygon class="cls-2" points="126.06 39.63 110.98 29.41 110.98 24.28 126.06 34.5 126.06 39.63"/>
      <polyline class="cls-4" points="126.06 39.63 148.08 30.41 126.06 39.63 126.06 34.52 148.08 25.3 148.08 30.41"/>
      <polygon class="cls-5" points="111 24.28 133.02 15.06 148.08 25.3 126.06 34.52 111 24.28"/>
      <polygon class="cls-2" points="152.18 57.08 137.09 46.87 137.09 41.74 152.18 51.96 152.18 57.08"/>
      <polyline class="cls-4" points="152.18 57.08 174.2 47.87 152.18 57.08 152.18 51.98 174.2 42.76 174.2 47.87"/>
      <polygon class="cls-5" points="137.12 41.74 159.14 32.52 174.2 42.76 152.18 51.98 137.12 41.74"/>
      <polygon class="cls-7" points="69.67 91.22 56.31 82.18 56.31 103.76 69.67 112.8 69.67 91.22"/>
      <polygon class="cls-8" points="58.48 83.66 56.31 82.18 56.31 103.76 58.48 105.23 58.48 83.66"/>
      <polygon class="cls-7" points="90.27 105.13 76.92 96.09 76.92 117.67 90.27 126.7 90.27 105.13"/>
      <polygon class="cls-8" points="79.09 97.57 76.92 96.09 76.92 117.67 79.09 119.14 79.09 97.57"/>
      <polygon class="cls-7" points="142.59 101.44 127.84 107.6 127.84 129.06 142.59 122.9 142.59 101.44"/>
      <polygon class="cls-8" points="141.04 102.07 141.04 123.55 142.59 122.9 142.59 101.44 141.04 102.07"/>
      <polygon class="cls-7" points="165.31 91.94 150.56 98.11 150.56 119.58 165.31 113.41 165.31 91.94"/>
      <polygon class="cls-8" points="163.77 92.59 163.77 114.06 165.31 113.41 165.31 91.94 163.77 92.59"/>
      <polygon class="cls-7" points="187.15 82.87 172.4 89.04 172.4 110.5 187.15 104.34 187.15 82.87"/>
      <polygon class="cls-8" points="185.6 83.52 185.6 104.99 187.15 104.34 187.15 82.87 185.6 83.52"/>
      <polygon class="cls-7" points="69.67 126.72 56.31 117.67 56.31 139.24 69.67 148.28 69.67 126.72"/>
      <polygon class="cls-8" points="58.48 119.14 56.31 117.67 56.31 139.24 58.48 140.72 58.48 119.14"/>
      <polygon class="cls-7" points="90.27 140.63 76.92 131.57 76.92 153.15 90.27 162.19 90.27 140.63"/>
      <polygon class="cls-8" points="79.09 133.05 76.92 131.57 76.92 153.15 79.09 154.62 79.09 133.05"/>
      <polygon class="cls-7" points="142.59 136.92 127.84 143.09 127.84 164.56 142.59 158.39 142.59 136.92"/>
      <polygon class="cls-8" points="141.04 137.57 141.04 159.03 142.59 158.39 142.59 136.92 141.04 137.57"/>
      <polygon class="cls-7" points="165.31 127.43 150.56 133.6 150.56 155.07 165.31 148.9 165.31 127.43"/>
      <polygon class="cls-8" points="163.77 128.07 163.77 149.55 165.31 148.9 165.31 127.43 163.77 128.07"/>
      <polygon class="cls-7" points="187.15 118.35 172.4 124.53 172.4 145.99 187.15 139.83 187.15 118.35"/>
      <polygon class="cls-8" points="185.6 119 185.6 140.47 187.15 139.83 187.15 118.35 185.6 119"/>
      <polygon class="cls-7" points="69.67 162.2 56.31 153.16 56.31 174.73 69.67 183.77 69.67 162.2"/>
      <polygon class="cls-8" points="58.48 154.62 56.31 153.16 56.31 174.73 58.48 176.2 58.48 154.62"/>
      <polygon class="cls-7" points="90.27 176.11 76.92 167.07 76.92 188.65 90.27 197.68 90.27 176.11"/>
      <polygon class="cls-8" points="79.09 168.53 76.92 167.07 76.92 188.65 79.09 190.11 79.09 168.53"/>
      <polygon class="cls-7" points="142.59 172.41 127.84 178.57 127.84 200.04 142.59 193.87 142.59 172.41"/>
      <polygon class="cls-8" points="141.04 173.05 141.04 194.52 142.59 193.87 142.59 172.41 141.04 173.05"/>
      <polygon class="cls-7" points="165.31 162.91 150.56 169.09 150.56 190.55 165.31 184.39 165.31 162.91"/>
      <polygon class="cls-8" points="163.77 163.56 163.77 185.03 165.31 184.39 165.31 162.91 163.77 163.56"/>
      <polygon class="cls-7" points="187.15 153.85 172.4 160.01 172.4 181.48 187.15 175.31 187.15 153.85"/>
      <polygon class="cls-8" points="185.6 154.49 185.6 175.96 187.15 175.31 187.15 153.85 185.6 154.49"/>
      <polygon class="cls-7" points="69.67 197.68 56.31 188.65 56.31 210.22 69.67 219.25 69.67 197.68"/>
      <polygon class="cls-8" points="58.48 190.12 56.31 188.65 56.31 210.22 58.48 211.68 58.48 190.12"/>
      <polygon class="cls-7" points="90.27 211.59 76.92 202.55 76.92 224.13 90.27 233.16 90.27 211.59"/>
      <polygon class="cls-8" points="79.09 204.02 76.92 202.55 76.92 224.13 79.09 225.6 79.09 204.02"/>
      <polygon class="cls-7" points="142.59 207.89 127.84 214.06 127.84 235.52 142.59 229.36 142.59 207.89"/>
      <polygon class="cls-8" points="141.04 208.53 141.04 230.01 142.59 229.36 142.59 207.89 141.04 208.53"/>
      <polygon class="cls-7" points="165.31 198.4 150.56 204.57 150.56 226.04 165.31 219.87 165.31 198.4"/>
      <polygon class="cls-8" points="163.77 199.05 163.77 220.52 165.31 219.87 165.31 198.4 163.77 199.05"/>
      <polygon class="cls-7" points="187.15 189.33 172.4 195.49 172.4 216.97 187.15 210.81 187.15 189.33"/>
      <polygon class="cls-8" points="185.6 189.98 185.6 211.45 187.15 210.81 187.15 189.33 185.6 189.98"/>
    </g>
  </g>
</svg>
