<svg xmlns="http://www.w3.org/2000/svg" viewBox="0 0 560.16 819.9">
  <defs>
    <style>
      .cls-1 {
        fill: #6584bc;
      }

      .cls-2 {
        fill: #5c74b1;
      }

      .cls-3 {
        fill: #728ec2;
      }

      .cls-4 {
        fill: #253d74;
      }

      .cls-5 {
        fill: #6077a2;
      }

      .cls-6 {
        fill: #4f6286;
      }

      .cls-7 {
        fill: #596f96;
      }

      .cls-8 {
        fill: #7b97cc;
      }

      .cls-9 {
        fill: #1a2952;
      }
    </style>
  </defs>
  <title>Asset 1</title>
  <g id="Layer_2" data-name="Layer 2">
    <g id="Capa_1" data-name="Capa 1">
      <polygon class="cls-1" points="228.4 731.9 0 577.71 0 97.76 228.4 251.72 228.4 731.9"/>
      <polyline class="cls-2" points="228.4 731.9 404.88 658.02 228.4 731.9 228.4 251.94 404.88 178.07 404.88 658.02"/>
      <polygon class="cls-3" points="0 97.76 176.7 23.06 404.88 178.07 228.4 251.94 0 97.76"/>
      <polygon class="cls-4" points="208.55 358.36 19.86 230.98 19.86 145.52 208.55 272.72 208.55 358.36"/>
      <polygon class="cls-4" points="208.55 464.77 19.86 337.39 19.86 251.94 208.55 379.14 208.55 464.77"/>
      <polygon class="cls-4" points="208.55 571.18 19.86 443.81 19.86 358.36 208.55 485.55 208.55 571.18"/>
      <polygon class="cls-4" points="208.55 677.59 19.86 550.22 19.86 464.77 208.55 591.97 208.55 677.59"/>
      <polygon class="cls-1" points="228.4 251.94 0 97.76 0 74.69 228.4 228.66 228.4 251.94"/>
      <polyline class="cls-2" points="228.4 251.94 404.88 178.07 228.4 251.94 228.4 228.88 404.88 155 404.88 178.07"/>
      <polygon class="cls-3" points="0 74.69 176.7 0 404.88 155 228.4 228.88 0 74.69"/>
      <polygon class="cls-5" points="20.48 81.06 174.77 15.79 382.59 156.75 227.97 221.38 20.48 81.06"/>
      <polygon class="cls-6" points="174.78 7.8 174.78 15.79 382.47 156.65 390.5 153.44 174.78 7.8"/>
      <polygon class="cls-7" points="174.78 7.48 174.78 15.48 20.48 80.75 12.19 75.39 174.78 7.48"/>
      <polygon class="cls-8" points="297.69 817.03 168.53 729.99 168.53 266.78 297.69 353.61 297.69 817.03"/>
      <polyline class="cls-2" points="297.69 817.03 524.45 722.83 297.69 817.03 297.69 353.82 524.45 259.62 524.45 722.83"/>
      <polygon class="cls-3" points="168.53 266.78 395.52 171.76 524.45 259.62 297.69 353.82 168.53 266.78"/>
      <polygon class="cls-8" points="297.69 353.82 168.53 266.78 168.53 243.72 297.69 330.55 297.69 353.82"/>
      <polyline class="cls-2" points="297.69 353.82 524.45 259.62 297.69 353.82 297.69 330.76 524.45 236.56 524.45 259.62"/>
      <polygon class="cls-3" points="168.53 243.72 395.52 148.69 524.45 236.56 297.69 330.76 168.53 243.72"/>
      <polygon class="cls-6" points="395.43 153.04 395.43 161.04 502.91 235.3 510.99 231.91 395.43 153.04"/>
      <polygon class="cls-5" points="185.56 249.08 395.43 161.04 502.91 235.3 293.8 322.27 185.56 249.08"/>
      <polygon class="cls-7" points="395.43 153.04 395.43 161.04 185.56 249.08 177.27 243.72 395.43 153.04"/>
      <polygon class="cls-8" points="383.41 819.9 347.6 796.44 347.6 435.38 383.41 458.67 383.41 819.9"/>
      <polyline class="cls-2" points="383.41 819.9 560.16 746.46 383.41 819.9 383.41 458.84 560.16 385.41 560.16 746.46"/>
      <polygon class="cls-3" points="347.6 435.38 524.52 361.31 560.16 385.41 383.41 458.84 347.6 435.38"/>
      <polygon class="cls-4" points="280.18 401.94 186.06 338.41 186.06 295.79 280.18 359.24 280.18 401.94"/>
      <polygon class="cls-4" points="280.18 499.1 186.06 435.56 186.06 392.94 280.18 456.39 280.18 499.1"/>
      <polygon class="cls-4" points="280.18 601.98 186.06 538.44 186.06 495.82 280.18 559.27 280.18 601.98"/>
      <polygon class="cls-4" points="280.18 699.13 186.06 635.59 186.06 592.97 280.18 656.42 280.18 699.13"/>
      <polyline class="cls-9" points="404.63 536.17 532.84 482.91 404.63 536.17 404.63 476.36 532.84 423.1 532.84 482.91"/>
      <polyline class="cls-9" points="404.63 618.35 532.84 565.08 404.63 618.35 404.63 558.53 532.84 505.27 532.84 565.08"/>
      <polyline class="cls-9" points="404.63 700.52 532.84 647.25 404.63 700.52 404.63 640.71 532.84 587.44 532.84 647.25"/>
      <polyline class="cls-9" points="404.63 782.69 532.84 729.41 404.63 782.69 404.63 722.87 532.84 669.61 532.84 729.41"/>
    </g>
  </g>
</svg>
