<svg xmlns="http://www.w3.org/2000/svg" viewBox="0 0 404.87 742.59">
  <defs>
    <style>
      .cls-1 {
        fill: #ededed;
      }

      .cls-2 {
        fill: #c6c6c6;
      }

      .cls-3 {
        fill: #728ec2;
      }

      .cls-4 {
        fill: #b2b2b2;
      }

      .cls-5 {
        fill: #fafafa;
      }

      .cls-6 {
        fill: #818080;
      }

      .cls-7 {
        fill: #a1a1a1;
      }

      .cls-8 {
        fill: #5d636f;
      }

      .cls-9 {
        fill: #3f424b;
      }
    </style>
  </defs>
  <title>Asset 5</title>
  <g id="Layer_2" data-name="Layer 2">
    <g id="Capa_1" data-name="Capa 1">
      <polygon class="cls-1" points="228.41 742.59 0 588.4 0 97.76 228.41 251.73 228.41 742.59"/>
      <polyline class="cls-2" points="228.41 742.59 404.88 668.72 228.41 742.59 228.41 251.94 404.88 178.07 404.88 668.72"/>
      <polygon class="cls-3" points="0 97.76 176.7 23.07 404.88 178.07 228.41 251.94 0 97.76"/>
      <polygon class="cls-4" points="228.41 251.94 0 97.76 0 74.7 228.41 228.66 228.41 251.94"/>
      <polyline class="cls-4" points="228.41 251.94 404.88 178.07 228.41 251.94 228.41 228.89 404.88 155.02 404.88 178.07"/>
      <polygon class="cls-5" points="0 74.7 176.7 0 404.88 155.02 228.41 228.89 0 74.7"/>
      <polygon class="cls-4" points="20.48 81.06 174.77 15.8 382.6 156.76 227.97 221.4 20.48 81.06"/>
      <polygon class="cls-6" points="174.78 7.8 174.78 15.8 382.48 156.66 390.5 153.45 174.78 7.8"/>
      <polygon class="cls-7" points="174.78 7.5 174.78 15.49 20.48 80.76 12.19 75.39 174.78 7.5"/>
      <polygon class="cls-8" points="45.84 172.15 0 141.79 0 176.36 45.84 206.7 45.84 172.15"/>
      <polygon class="cls-8" points="57.97 180.17 57.97 214.73 98.41 241.5 98.41 206.93 57.97 180.17"/>
      <polygon class="cls-8" points="110.53 214.96 110.53 249.52 228.41 327.54 228.41 292.98 110.53 214.96"/>
      <polygon class="cls-8" points="45.84 245.92 0 215.58 0 250.15 45.84 280.49 45.84 245.92"/>
      <polygon class="cls-8" points="57.97 253.96 57.97 288.52 98.41 315.29 98.41 280.72 57.97 253.96"/>
      <polygon class="cls-8" points="110.53 288.75 110.53 323.32 228.41 401.33 228.41 366.77 110.53 288.75"/>
      <polygon class="cls-8" points="57.97 327.74 57.97 362.31 98.41 389.08 98.41 354.51 57.97 327.74"/>
      <polygon class="cls-8" points="45.84 319.71 0 289.38 0 323.94 45.84 354.28 45.84 319.71"/>
      <polygon class="cls-8" points="110.53 362.54 110.53 397.11 228.41 475.12 228.41 440.56 110.53 362.54"/>
      <polygon class="cls-8" points="45.84 393.5 0 363.16 0 397.73 45.84 428.07 45.84 393.5"/>
      <polygon class="cls-8" points="57.97 401.54 57.97 436.1 98.41 462.87 98.41 428.3 57.97 401.54"/>
      <polygon class="cls-8" points="110.53 436.33 110.53 470.89 228.41 548.91 228.41 514.35 110.53 436.33"/>
      <polygon class="cls-8" points="45.84 467.3 0 436.96 0 471.52 45.84 501.86 45.84 467.3"/>
      <polygon class="cls-8" points="57.97 475.32 57.97 509.89 98.41 536.66 98.41 502.09 57.97 475.32"/>
      <polygon class="cls-8" points="110.53 510.12 110.53 544.69 228.41 622.7 228.41 588.14 110.53 510.12"/>
      <polygon class="cls-8" points="45.84 541.09 0 510.75 0 545.31 45.84 575.65 45.84 541.09"/>
      <polygon class="cls-8" points="57.97 549.11 57.97 583.68 98.41 610.45 98.41 575.88 57.97 549.11"/>
      <polygon class="cls-8" points="110.53 583.91 110.53 618.47 228.41 696.5 228.41 661.93 110.53 583.91"/>
      <polygon class="cls-9" points="319.44 254.95 228.41 293.06 228.41 327.54 319.44 288.55 319.44 254.95"/>
      <polygon class="cls-9" points="331.57 249.88 331.57 283.35 404.88 251.94 404.88 219.18 331.57 249.88"/>
      <polygon class="cls-9" points="331.57 323.68 331.57 357.15 404.88 325.75 404.88 292.98 331.57 323.68"/>
      <polygon class="cls-9" points="319.44 328.75 228.41 366.86 228.41 401.34 319.44 362.35 319.44 328.75"/>
      <polygon class="cls-9" points="319.44 402.56 228.41 440.67 228.41 475.15 319.44 436.15 319.44 402.56"/>
      <polygon class="cls-9" points="331.57 397.48 331.57 430.95 404.88 399.56 404.88 366.8 331.57 397.48"/>
      <polygon class="cls-9" points="319.44 476.36 228.41 514.47 228.41 548.95 319.44 509.96 319.44 476.36"/>
      <polygon class="cls-9" points="331.57 471.29 331.57 504.77 404.88 473.36 404.88 440.6 331.57 471.29"/>
      <polygon class="cls-9" points="319.44 550.16 228.41 588.27 228.41 622.75 319.44 583.76 319.44 550.16"/>
      <polygon class="cls-9" points="331.57 545.09 331.57 578.57 404.88 547.17 404.88 514.4 331.57 545.09"/>
      <polygon class="cls-9" points="331.57 618.89 331.57 652.37 404.88 620.97 404.88 588.21 331.57 618.89"/>
      <polygon class="cls-9" points="319.44 623.98 228.41 662.08 228.41 696.55 319.44 657.56 319.44 623.98"/>
    </g>
  </g>
</svg>
