<svg id="v3" xmlns="http://www.w3.org/2000/svg" viewBox="0 0 1767.07 211.29">
  <defs>
    <style>
      .cls-1 {
        fill: #fff;
      }
    </style>
  </defs>
  <title>bll-logo_white</title>
  <g id="Layer_2_copy" data-name="Layer 2 copy">
    <path class="cls-1" d="M1798.73,557.92V524l1.59-1.54,66.21,1.5a27.81,27.81,0,0,1,6.13.83,27.29,27.29,0,0,1,5.79,2.18,14.56,14.56,0,0,1,2.24,1.15c1,.64,7.74,5,7.74,12.58,0,7.08-5.85,11.47-7.74,12.58-.35.2-1.47.82-2.92,1.49a28.31,28.31,0,0,1-5.08,1.91,23.72,23.72,0,0,1-5.4.74L1804,558.83l-4.45.1C1799.15,558.53,1799.14,558.32,1798.73,557.92Z" transform="translate(-121.36 -434.12)"/>
  </g>
  <g id="let">
    <path class="cls-1" d="M353,566.63l-.25-.29-.7-.76a1.37,1.37,0,0,0-.17-.17,23.64,23.64,0,0,0-6.11-4.29,43.19,43.19,0,0,0-12.8-3.91l-.17,0a58.8,58.8,0,0,0-17.57,0l-.17,0a43.54,43.54,0,0,0-12.78,3.91c-4,2-7,4.56-8.52,7.43v26l-96.9-.25,0-3.09V579.34s0-2.11,0-2.3l0-5.61,0-14.64-25.78,0-.36-.06h-24l-.35.06-.35.05a60.68,60.68,0,0,0-7.42,1.73c-.54.15-1.06.33-1.58.5s-1,.34-1.52.53c-1,.36-1.93.74-2.85,1.16l-.72.33-.71.34c-.46.23-.91.47-1.34.71a24.55,24.55,0,0,0-6.44,4.89c-.25.28-.49.56-.72.85a13.69,13.69,0,0,0-1.29,2v75.56h75.26v-.14H319.51a46.66,46.66,0,0,0,7.09-.52c.76-.12,1.51-.26,2.25-.41a38.65,38.65,0,0,0,9.12-3.11,46.64,46.64,0,0,0,9.13-5.8,42.59,42.59,0,0,0,4.92-4.67,46.55,46.55,0,0,0,5.88-8.16s.46-.71,1.07-1.87a33.25,33.25,0,0,0,2-4.63,57.92,57.92,0,0,0,1.08-33.56A45.07,45.07,0,0,0,353,566.63Z" transform="translate(-121.36 -434.12)"/>
    <path class="cls-1" d="M644.49,435.78H569.24v.83l.12,64v6l-.12,13.91H595l.36.05h24l.35-.05.35,0a65.81,65.81,0,0,0,7.42-1.64c.54-.15,1.06-.31,1.58-.47l1.52-.5c1-.35,1.93-.71,2.85-1.1l.72-.32.71-.32c.46-.22.91-.44,1.34-.67a25,25,0,0,0,6.44-4.63c.25-.27.48-.54.72-.81a12,12,0,0,0,1.28-1.85V436.61h-.13Z" transform="translate(-121.36 -434.12)"/>
    <path class="cls-1" d="M936.17,593.57l-147.44-.17v-37H763.11l-.36-.06h-24l-.34.06-.36,0a61,61,0,0,0-7.41,1.73c-.54.15-1.06.33-1.58.5s-1,.34-1.52.53c-1,.36-1.94.74-2.86,1.16l-.72.33-.71.34c-.46.23-.91.47-1.34.71a24.66,24.66,0,0,0-6.44,4.89l-.72.85a13.61,13.61,0,0,0-1.28,1.95v75.24h223Z" transform="translate(-121.36 -434.12)"/>
    <path class="cls-1" d="M1297.83,496.34v7.33c.05.12.12.25.17.37v2.38a12.7,12.7,0,0,0,1.28,1.84q.36.42.72.81a25.06,25.06,0,0,0,6.44,4.64l1.34.67.71.32.72.31c.92.4,1.87.76,2.86,1.1.49.18,1,.34,1.51.5s1.05.33,1.59.48a65.17,65.17,0,0,0,7.41,1.63l.36.06.34.05H1330c.77.06,1.55.11,2.34.13l.41,0h.36c.79,0,1.59,0,2.4,0s1.64,0,2.44,0h.34l.42,0h34.61l.1-15.83,0-.08v-4.4l.08-13,132.77-.17.09-50.84H1297.83Z" transform="translate(-121.36 -434.12)"/>
    <path class="cls-1" d="M1505.89,593.92H1373.42l-.05-15.93-.06-5.9h0V556.23H1347.6l-.37-.06h-24.09l-.35.06-.35.06A61.18,61.18,0,0,0,1315,558c-.54.15-1.06.32-1.58.5s-1,.34-1.53.53c-1,.36-1.94.75-2.86,1.16l-.73.33-.71.34c-.46.23-.91.47-1.34.71a25,25,0,0,0-6.47,4.9l-.72.86a13.69,13.69,0,0,0-1.29,1.95v75.34l75.55.29,133.07-.31Z" transform="translate(-121.36 -434.12)"/>
    <path class="cls-1" d="M1726.3,555.89h-25.82l-.35-.06h-23.27l-.33.06-.34.05a57.47,57.47,0,0,0-7.2,1.73c-.52.15-1,.33-1.52.5s-1,.34-1.48.53c-1,.36-1.87.74-2.76,1.16l-.7.33c-.24.11-.47.22-.69.34-.44.23-.88.47-1.3.71a58,58,0,0,0-9.2,7.69l-.12,75.7h75.11Z" transform="translate(-121.36 -434.12)"/>
    <path class="cls-1" d="M1578.51,434.12v51.33l72.77,0,.09,21.27a57.91,57.91,0,0,0,9.23,7.29c.42.23.86.46,1.31.67l.68.32.71.32c.89.39,1.81.75,2.77,1.1.48.17,1,.34,1.47.5s1,.33,1.53.47a62.33,62.33,0,0,0,7.2,1.64l.35,0,.33.06h23.3l.35-.06h25.83l-.15-33.5,72.36-.12V434.15Z" transform="translate(-121.36 -434.12)"/>
    <path class="cls-1" d="M715.47,509.48a25,25,0,0,0,6.44,4.63c.43.23.88.45,1.34.67l.71.32.72.32c.92.39,1.87.75,2.86,1.1l1.52.5c.52.16,1,.32,1.58.47a63.08,63.08,0,0,0,7.41,1.63l.36.06.34.05h24l.36-.05h25.62V519h0l0-15.86h0l0-.08v-6.09a.19.19,0,0,1,0-.07l0-62H713.87v.34h-.4v71.59a12.78,12.78,0,0,0,1.28,1.85Z" transform="translate(-121.36 -434.12)"/>
    <path class="cls-1" d="M1007.71,509.25a25,25,0,0,0,6.44,4.63c.43.23.88.45,1.34.67l.71.32.72.32c.92.39,1.87.75,2.85,1.1l1.52.5,1.58.47a63.71,63.71,0,0,0,7.42,1.63l.35.06.35,0h10.43c.59,0,1.18,0,1.78,0s1.21,0,1.81,0h10l.25,0H1081V435h-.18v-.11h-74.94V435h-.14v71.59a12,12,0,0,0,1.28,1.85Z" transform="translate(-121.36 -434.12)"/>
    <path class="cls-1" d="M424.3,510.86a24.81,24.81,0,0,0,6.43,4.63c.44.23.89.45,1.35.67l.7.32.73.32c.91.39,1.86.75,2.85,1.1l1.52.5c.52.16,1,.32,1.58.47a65.14,65.14,0,0,0,7.41,1.64l.36,0,.34.05h24l.36-.05h26L497.66,503v0h0s0,0,0-.05v-3.24l.28-62.92v-.13H422.68v72.21a5.83,5.83,0,0,0,.88,1.23Z" transform="translate(-121.36 -434.12)"/>
    <path class="cls-1" d="M123.37,509.07a24.83,24.83,0,0,0,6.44,4.61l1.34.67.71.31.72.32c.92.39,1.87.75,2.85,1.09l1.52.5,1.59.47a63.1,63.1,0,0,0,7.41,1.62l.36.06.34,0h24l.36,0h25.83s-.06-16.83,0-17.05c0-.05,0-3.22,0-3.22l-.06-12.59,68.75.06v19.45c3.55,7.54,14.57,13.13,27.84,13.59.61,0,1.23,0,1.84,0s1.2,0,1.8,0c.41,0,.82,0,1.21-.05,1.18-.08,2.33-.18,3.46-.32l1.12-.16c.37-.06.73-.13,1.1-.18,1.1-.19,2.16-.42,3.2-.69h0l1-.28a34.67,34.67,0,0,0,3.92-1.33c.32-.12.62-.26.93-.38l.9-.4a27.28,27.28,0,0,0,3.34-1.8,21.42,21.42,0,0,0,6.25-5.62c.11-.16.22-.31.32-.47l.08-.13c.13-.19.25-.39.37-.59l.08-.13.09-.12a2,2,0,0,0,.23-.41,1,1,0,0,0,.05-.11s0,0,0,0a2,2,0,0,1,.08-.28c.41-1.36.78-2.69,1.1-4,0-.06,0-.11,0-.16a1.57,1.57,0,0,0,.08-.29c0-.12.06-.23.08-.3C331,481.93,329,470.87,329,470.87a46.14,46.14,0,0,0-4.28-13.05,45.46,45.46,0,0,0-11.79-14.21,37.2,37.2,0,0,0-13.14-6.73,42.94,42.94,0,0,0-9.13-1.64H121.36v71.21a12.71,12.71,0,0,0,1.29,1.83C122.88,508.53,123.12,508.81,123.37,509.07Z" transform="translate(-121.36 -434.12)"/>
    <path class="cls-1" d="M644.47,570a13.21,13.21,0,0,0-1.34-1.94l-.72-.86a25.11,25.11,0,0,0-6.44-4.89c-.43-.24-.88-.48-1.34-.71-.23-.11-.47-.23-.71-.33l-.72-.34c-.92-.41-1.87-.79-2.86-1.16l-1.51-.53-1.58-.5a61.57,61.57,0,0,0-7.42-1.72l-.35-.06-.35-.06h-24l-.36.06H569.15v36.65H498V556.35H472.36l-.36-.06H448l-.35.06-.35,0a60.68,60.68,0,0,0-7.42,1.73c-.54.15-1.06.33-1.58.5s-1,.34-1.52.53c-1,.36-1.93.74-2.85,1.16-.24.1-.49.22-.72.33l-.71.34c-.46.23-.91.47-1.34.71a24.33,24.33,0,0,0-6.44,4.89c-.25.28-.49.56-.72.85a12.81,12.81,0,0,0-1.28,1.95v29.46a49.08,49.08,0,0,0,2.48,14.51,48.22,48.22,0,0,0,7.85,15A43.93,43.93,0,0,0,446.69,640q8.26,4.63,20.11,4.64H600.68a38.47,38.47,0,0,0,17.64-4,46.3,46.3,0,0,0,13.77-10.47,49.23,49.23,0,0,0,9.1-14.65,44.86,44.86,0,0,0,3.22-14.07c.05-.85.08-1.7.08-2.54v-21c0,.09,0,.08,0,0V573C644.47,572.93,644.47,570,644.47,570Z" transform="translate(-121.36 -434.12)"/>
    <path class="cls-1" d="M1080.75,577.89v-21h-25.47l-.36-.06h-23.86l-.34.06-.36.06a60.29,60.29,0,0,0-7.37,1.72c-.54.15-1,.32-1.57.49l-1.51.53c-1,.36-1.93.74-2.84,1.15l-.72.34c-.24.1-.47.22-.7.33-.46.23-.91.47-1.34.71a24.77,24.77,0,0,0-6.4,4.87c-.24.27-.48.56-.72.85a13.35,13.35,0,0,0-1.27,1.93v.7l0,.11,0,0v73.89h222.6l.12-51.17-147.82.11Z" transform="translate(-121.36 -434.12)"/>
  </g>
</svg>
