<svg id="Layer_3" data-name="Layer 3" xmlns="http://www.w3.org/2000/svg" viewBox="0 0 1857.66 355.8">
  <title>KAFKA-LOGO_Black</title>
  <g>
    <path d="M324.83,363.1h63.25c1,0,2,1,3,3V714.43c0,1-1,2-3,3H324.83q-1.49,0-3-3V366.06C321.86,365.07,322.85,364.09,324.83,363.1Z" transform="translate(-35.09 -362.6)"/>
    <path d="M659,363s66.2,136.81,160.75,350.44c-.5,2.64-3.13,4-7.91,4h-62L627.53,447.6h-1l-123,269.8h-61c-3.62,0-6.26-1-7.9-3C518.57,523.53,570.23,405.83,590,363Z" transform="translate(-35.09 -362.6)"/>
    <path d="M1732,363s66.2,136.81,160.75,350.44c-.5,2.64-3.13,4-7.91,4h-62l-122.3-269.8h-1l-123,269.8h-61c-3.62,0-6.26-1-7.9-3,84-190.9,135.66-308.6,155.43-351.43Z" transform="translate(-35.09 -362.6)"/>
    <path d="M973.49,498h-97.8c-.57,0-1.13,1-1.69,3v64.35a4.18,4.18,0,0,0,1.69,3h97.8c.56,0,1.13-1,1.69-3V501A4.18,4.18,0,0,0,973.49,498Z" transform="translate(-35.09 -362.6)"/>
    <path d="M298,541S121,716.49,119.58,717.4H37.06a1.75,1.75,0,0,1-2-2v-1L214,534,47.69,365.07s.74-2,1.73-2h79.8l.77.18s.33.15.51.25Z" transform="translate(-35.09 -362.6)"/>
    <path d="M1371,542s-177,175.49-178.42,176.4h-82.52a1.75,1.75,0,0,1-2-2v-1L1287,535,1120.69,366.07s.74-2,1.73-2h79.8l.77.18s.33.15.51.25Z" transform="translate(-35.09 -362.6)"/>
    <path d="M1066.05,362.6H826.63c-2,1-3,2-3,3v63.25c1,2,2,3,3,3H998.55l.29-.16v77.25l-1,69.18V714.43q1.49,3,3,3h65.23c2-1,3-2,3-3V365.57C1068,363.59,1067,362.6,1066.05,362.6Z" transform="translate(-35.09 -362.6)"/>
    <path d="M1398,363.1h63.25c1,0,2,1,3,3V714.43q0,1.49-3,3H1398c-1,0-2-1-3-3V366.06C1395,365.07,1396,364.09,1398,363.1Z" transform="translate(-35.09 -362.6)"/>
  </g>
</svg>
